<?xml version="1.0" encoding="UTF-8" standalone="no"?><svg xmlns="http://www.w3.org/2000/svg" xmlns:xlink="http://www.w3.org/1999/xlink" contentScriptType="application/ecmascript" contentStyleType="text/css" height="621px" preserveAspectRatio="none" style="width:204px;height:621px;" version="1.1" viewBox="0 0 204 621" width="204px" zoomAndPan="magnify"><defs><filter height="300%" id="fvs1sd5" width="300%" x="-1" y="-1"><feGaussianBlur result="blurOut" stdDeviation="2.0"/><feColorMatrix in="blurOut" result="blurOut2" type="matrix" values="0 0 0 0 0 0 0 0 0 0 0 0 0 0 0 0 0 0 .4 0"/><feOffset dx="4.0" dy="4.0" in="blurOut2" result="blurOut3"/><feBlend in="SourceGraphic" in2="blurOut3" mode="normal"/></filter></defs><g><text fill="#888888" font-family="sans-serif" font-size="10" lengthAdjust="spacingAndGlyphs" textLength="0" x="203" y="10.3809"/><text fill="#888888" font-family="sans-serif" font-size="10" lengthAdjust="spacingAndGlyphs" textLength="0" x="203" y="22.959"/><ellipse cx="16" cy="67.1563" fill="#000000" filter="url(#fvs1sd5)" rx="10" ry="10" style="stroke: none; stroke-width: 1.0;"/><rect fill="#00FF00" filter="url(#fvs1sd5)" height="67.7969" rx="12.5" ry="12.5" style="stroke: #A80036; stroke-width: 1.5;" width="101" x="61.5" y="33.1563"/><line style="stroke: #A80036; stroke-width: 1.5;" x1="61.5" x2="162.5" y1="60.7656" y2="60.7656"/><text fill="#000000" font-family="sans-serif" font-size="14" lengthAdjust="spacingAndGlyphs" textLength="78" x="73" y="52.6895">RootLtlNode</text><text fill="#000000" font-family="sans-serif" font-size="12" lengthAdjust="spacingAndGlyphs" textLength="81" x="66.5" y="78.2227">Old XXXaAndb,</text><text fill="#000000" font-family="sans-serif" font-size="12" lengthAdjust="spacingAndGlyphs" textLength="79" x="66.5" y="93.3164">Next XXaAndb,</text><rect fill="#00FF00" filter="url(#fvs1sd5)" height="67.7969" rx="12.5" ry="12.5" style="stroke: #A80036; stroke-width: 1.5;" width="94" x="65" y="161.1563"/><line style="stroke: #A80036; stroke-width: 1.5;" x1="65" x2="159" y1="188.7656" y2="188.7656"/><text fill="#000000" font-family="sans-serif" font-size="14" lengthAdjust="spacingAndGlyphs" textLength="56" x="84" y="180.6895">LtlNode1</text><text fill="#000000" font-family="sans-serif" font-size="12" lengthAdjust="spacingAndGlyphs" textLength="74" x="70" y="206.2227">Old XXaAndb,</text><text fill="#000000" font-family="sans-serif" font-size="12" lengthAdjust="spacingAndGlyphs" textLength="72" x="70" y="221.3164">Next XaAndb,</text><rect fill="#00FF00" filter="url(#fvs1sd5)" height="67.7969" rx="12.5" ry="12.5" style="stroke: #A80036; stroke-width: 1.5;" width="87" x="68.5" y="289.1563"/><line style="stroke: #A80036; stroke-width: 1.5;" x1="68.5" x2="155.5" y1="316.7656" y2="316.7656"/><text fill="#000000" font-family="sans-serif" font-size="14" lengthAdjust="spacingAndGlyphs" textLength="56" x="84" y="308.6895">LtlNode2</text><text fill="#000000" font-family="sans-serif" font-size="12" lengthAdjust="spacingAndGlyphs" textLength="67" x="73.5" y="334.2227">Old XaAndb,</text><text fill="#000000" font-family="sans-serif" font-size="12" lengthAdjust="spacingAndGlyphs" textLength="65" x="73.5" y="349.3164">Next aAndb,</text><rect fill="#00FF00" filter="url(#fvs1sd5)" height="67.7969" rx="12.5" ry="12.5" style="stroke: #A80036; stroke-width: 1.5;" width="106" x="59" y="417.1563"/><line style="stroke: #A80036; stroke-width: 1.5;" x1="59" x2="165" y1="444.7656" y2="444.7656"/><text fill="#000000" font-family="sans-serif" font-size="14" lengthAdjust="spacingAndGlyphs" textLength="56" x="84" y="436.6895">LtlNode3</text><text fill="#000000" font-family="sans-serif" font-size="12" lengthAdjust="spacingAndGlyphs" textLength="86" x="64" y="462.2227">Old aAndb, a, b,</text><text fill="#000000" font-family="sans-serif" font-size="12" lengthAdjust="spacingAndGlyphs" textLength="24" x="64" y="477.3164">Next</text><rect fill="#00FF00" filter="url(#fvs1sd5)" height="67.7969" rx="12.5" ry="12.5" style="stroke: #A80036; stroke-width: 1.5;" width="76" x="74" y="545.1563"/><line style="stroke: #A80036; stroke-width: 1.5;" x1="74" x2="150" y1="572.7656" y2="572.7656"/><text fill="#000000" font-family="sans-serif" font-size="14" lengthAdjust="spacingAndGlyphs" textLength="56" x="84" y="564.6895">LtlNode4</text><text fill="#000000" font-family="sans-serif" font-size="12" lengthAdjust="spacingAndGlyphs" textLength="19" x="79" y="590.2227">Old</text><text fill="#000000" font-family="sans-serif" font-size="12" lengthAdjust="spacingAndGlyphs" textLength="24" x="79" y="605.3164">Next</text><path d="M26.125,67.1563 C36.123,67.1563 46.1209,67.1563 56.1189,67.1563 " fill="none" style="stroke: #A80036; stroke-width: 1.0;"/><polygon fill="#A80036" points="61.3472,67.1563,52.3472,63.1563,56.3472,67.1563,52.3472,71.1563,61.3472,67.1563" style="stroke: #A80036; stroke-width: 1.0;"/><path d="M112,101.2613 C112,117.9133 112,138.1913 112,155.5492 " fill="none" style="stroke: #A80036; stroke-width: 1.0;"/><polygon fill="#A80036" points="112,160.8352,116,151.8352,112,155.8352,108,151.8352,112,160.8352" style="stroke: #A80036; stroke-width: 1.0;"/><path d="M112,229.2613 C112,245.9133 112,266.1913 112,283.5493 " fill="none" style="stroke: #A80036; stroke-width: 1.0;"/><polygon fill="#A80036" points="112,288.8353,116,279.8353,112,283.8353,108,279.8353,112,288.8353" style="stroke: #A80036; stroke-width: 1.0;"/><path d="M112,357.2613 C112,373.9133 112,394.1912 112,411.5493 " fill="none" style="stroke: #A80036; stroke-width: 1.0;"/><polygon fill="#A80036" points="112,416.8353,116,407.8353,112,411.8353,108,407.8353,112,416.8353" style="stroke: #A80036; stroke-width: 1.0;"/><path d="M112,485.2613 C112,501.9133 112,522.1918 112,539.5492 " fill="none" style="stroke: #A80036; stroke-width: 1.0;"/><polygon fill="#A80036" points="112,544.8349,116,535.8349,112,539.8349,108,535.8349,112,544.8349" style="stroke: #A80036; stroke-width: 1.0;"/><path d="M150.308,555.7422 C168.734,552.8516 185,560.6563 185,579.1563 C185,595.9219 171.641,603.9036 155.422,603.1013 " fill="none" style="stroke: #A80036; stroke-width: 1.0;"/><polygon fill="#A80036" points="150.308,602.5704,158.8474,607.4773,155.2813,603.0861,159.6726,599.52,150.308,602.5704" style="stroke: #A80036; stroke-width: 1.0;"/></g></svg>