<?xml version="1.0" encoding="UTF-8" standalone="no"?><svg xmlns="http://www.w3.org/2000/svg" xmlns:xlink="http://www.w3.org/1999/xlink" contentScriptType="application/ecmascript" contentStyleType="text/css" height="1224px" preserveAspectRatio="none" style="width:302px;height:1224px;" version="1.1" viewBox="0 0 302 1224" width="302px" zoomAndPan="magnify"><defs><filter height="300%" id="fb6u3nr" width="300%" x="-1" y="-1"><feGaussianBlur result="blurOut" stdDeviation="2.0"/><feColorMatrix in="blurOut" result="blurOut2" type="matrix" values="0 0 0 0 0 0 0 0 0 0 0 0 0 0 0 0 0 0 .4 0"/><feOffset dx="4.0" dy="4.0" in="blurOut2" result="blurOut3"/><feBlend in="SourceGraphic" in2="blurOut3" mode="normal"/></filter></defs><g><text fill="#888888" font-family="sans-serif" font-size="10" lengthAdjust="spacingAndGlyphs" textLength="0" x="301" y="10.3809"/><text fill="#888888" font-family="sans-serif" font-size="10" lengthAdjust="spacingAndGlyphs" textLength="0" x="301" y="22.959"/><ellipse cx="51" cy="59.6563" fill="#000000" filter="url(#fb6u3nr)" rx="10" ry="10" style="stroke: none; stroke-width: 1.0;"/><rect fill="#FEFECE" filter="url(#fb6u3nr)" height="52.7031" rx="12.5" ry="12.5" style="stroke: #A80036; stroke-width: 1.5;" width="50" x="96" y="33.1563"/><line style="stroke: #A80036; stroke-width: 1.5;" x1="96" x2="146" y1="60.7656" y2="60.7656"/><text fill="#000000" font-family="sans-serif" font-size="14" lengthAdjust="spacingAndGlyphs" textLength="8" x="117" y="52.6895">0</text><text fill="#000000" font-family="sans-serif" font-size="12" lengthAdjust="spacingAndGlyphs" textLength="7" x="101" y="78.2227">a</text><rect fill="#FEFECE" filter="url(#fb6u3nr)" height="52.7031" rx="12.5" ry="12.5" style="stroke: #A80036; stroke-width: 1.5;" width="50" x="96" y="146.1563"/><line style="stroke: #A80036; stroke-width: 1.5;" x1="96" x2="146" y1="173.7656" y2="173.7656"/><text fill="#000000" font-family="sans-serif" font-size="14" lengthAdjust="spacingAndGlyphs" textLength="8" x="117" y="165.6895">1</text><text fill="#000000" font-family="sans-serif" font-size="12" lengthAdjust="spacingAndGlyphs" textLength="20" x="101" y="191.2227">b, a</text><rect fill="#FEFECE" filter="url(#fb6u3nr)" height="52.7031" rx="12.5" ry="12.5" style="stroke: #A80036; stroke-width: 1.5;" width="50" x="51" y="259.1563"/><line style="stroke: #A80036; stroke-width: 1.5;" x1="51" x2="101" y1="286.7656" y2="286.7656"/><text fill="#000000" font-family="sans-serif" font-size="14" lengthAdjust="spacingAndGlyphs" textLength="16" x="68" y="278.6895">11</text><text fill="#000000" font-family="sans-serif" font-size="12" lengthAdjust="spacingAndGlyphs" textLength="7" x="56" y="304.2227">a</text><rect fill="#FEFECE" filter="url(#fb6u3nr)" height="52.7031" rx="12.5" ry="12.5" style="stroke: #A80036; stroke-width: 1.5;" width="50" x="46" y="372.1563"/><line style="stroke: #A80036; stroke-width: 1.5;" x1="46" x2="96" y1="399.7656" y2="399.7656"/><text fill="#000000" font-family="sans-serif" font-size="14" lengthAdjust="spacingAndGlyphs" textLength="16" x="63" y="391.6895">12</text><text fill="#000000" font-family="sans-serif" font-size="12" lengthAdjust="spacingAndGlyphs" textLength="7" x="51" y="417.2227">a</text><rect fill="#FEFECE" filter="url(#fb6u3nr)" height="52.7031" rx="12.5" ry="12.5" style="stroke: #A80036; stroke-width: 1.5;" width="50" x="36" y="485.1563"/><line style="stroke: #A80036; stroke-width: 1.5;" x1="36" x2="86" y1="512.7656" y2="512.7656"/><text fill="#000000" font-family="sans-serif" font-size="14" lengthAdjust="spacingAndGlyphs" textLength="16" x="53" y="504.6895">13</text><text fill="#000000" font-family="sans-serif" font-size="12" lengthAdjust="spacingAndGlyphs" textLength="7" x="41" y="530.2227">a</text><rect fill="#FEFECE" filter="url(#fb6u3nr)" height="52.7031" rx="12.5" ry="12.5" style="stroke: #A80036; stroke-width: 1.5;" width="50" x="15" y="598.1563"/><line style="stroke: #A80036; stroke-width: 1.5;" x1="15" x2="65" y1="625.7656" y2="625.7656"/><text fill="#000000" font-family="sans-serif" font-size="14" lengthAdjust="spacingAndGlyphs" textLength="16" x="32" y="617.6895">14</text><text fill="#000000" font-family="sans-serif" font-size="12" lengthAdjust="spacingAndGlyphs" textLength="7" x="20" y="643.2227">a</text><rect fill="#FEFECE" filter="url(#fb6u3nr)" height="52.7031" rx="12.5" ry="12.5" style="stroke: #A80036; stroke-width: 1.5;" width="50" x="6" y="711.1563"/><line style="stroke: #A80036; stroke-width: 1.5;" x1="6" x2="56" y1="738.7656" y2="738.7656"/><text fill="#000000" font-family="sans-serif" font-size="14" lengthAdjust="spacingAndGlyphs" textLength="16" x="23" y="730.6895">15</text><text fill="#000000" font-family="sans-serif" font-size="12" lengthAdjust="spacingAndGlyphs" textLength="3" x="11" y="756.2227">j</text><rect fill="#FEFECE" filter="url(#fb6u3nr)" height="52.7031" rx="12.5" ry="12.5" style="stroke: #A80036; stroke-width: 1.5;" width="50" x="141" y="259.1563"/><line style="stroke: #A80036; stroke-width: 1.5;" x1="141" x2="191" y1="286.7656" y2="286.7656"/><text fill="#000000" font-family="sans-serif" font-size="14" lengthAdjust="spacingAndGlyphs" textLength="8" x="162" y="278.6895">2</text><text fill="#000000" font-family="sans-serif" font-size="12" lengthAdjust="spacingAndGlyphs" textLength="7" x="146" y="304.2227">a</text><rect fill="#FEFECE" filter="url(#fb6u3nr)" height="52.7031" rx="12.5" ry="12.5" style="stroke: #A80036; stroke-width: 1.5;" width="50" x="141" y="372.1563"/><line style="stroke: #A80036; stroke-width: 1.5;" x1="141" x2="191" y1="399.7656" y2="399.7656"/><text fill="#000000" font-family="sans-serif" font-size="14" lengthAdjust="spacingAndGlyphs" textLength="8" x="162" y="391.6895">3</text><text fill="#000000" font-family="sans-serif" font-size="12" lengthAdjust="spacingAndGlyphs" textLength="7" x="146" y="417.2227">a</text><rect fill="#FEFECE" filter="url(#fb6u3nr)" height="52.7031" rx="12.5" ry="12.5" style="stroke: #A80036; stroke-width: 1.5;" width="50" x="141" y="485.1563"/><line style="stroke: #A80036; stroke-width: 1.5;" x1="141" x2="191" y1="512.7656" y2="512.7656"/><text fill="#000000" font-family="sans-serif" font-size="14" lengthAdjust="spacingAndGlyphs" textLength="8" x="162" y="504.6895">4</text><text fill="#000000" font-family="sans-serif" font-size="12" lengthAdjust="spacingAndGlyphs" textLength="7" x="146" y="530.2227">a</text><rect fill="#FEFECE" filter="url(#fb6u3nr)" height="52.7031" rx="12.5" ry="12.5" style="stroke: #A80036; stroke-width: 1.5;" width="50" x="180" y="1050.1563"/><line style="stroke: #A80036; stroke-width: 1.5;" x1="180" x2="230" y1="1077.7656" y2="1077.7656"/><text fill="#000000" font-family="sans-serif" font-size="14" lengthAdjust="spacingAndGlyphs" textLength="8" x="201" y="1069.6895">5</text><text fill="#000000" font-family="sans-serif" font-size="12" lengthAdjust="spacingAndGlyphs" textLength="7" x="185" y="1095.2227">a</text><rect fill="#FEFECE" filter="url(#fb6u3nr)" height="52.7031" rx="12.5" ry="12.5" style="stroke: #A80036; stroke-width: 1.5;" width="50" x="219" y="1163.1563"/><line style="stroke: #A80036; stroke-width: 1.5;" x1="219" x2="269" y1="1190.7656" y2="1190.7656"/><text fill="#000000" font-family="sans-serif" font-size="14" lengthAdjust="spacingAndGlyphs" textLength="8" x="240" y="1182.6895">6</text><text fill="#000000" font-family="sans-serif" font-size="12" lengthAdjust="spacingAndGlyphs" textLength="7" x="224" y="1208.2227">a</text><rect fill="#FEFECE" filter="url(#fb6u3nr)" height="52.7031" rx="12.5" ry="12.5" style="stroke: #A80036; stroke-width: 1.5;" width="50" x="180" y="598.1563"/><line style="stroke: #A80036; stroke-width: 1.5;" x1="180" x2="230" y1="625.7656" y2="625.7656"/><text fill="#000000" font-family="sans-serif" font-size="14" lengthAdjust="spacingAndGlyphs" textLength="8" x="201" y="617.6895">7</text><text fill="#000000" font-family="sans-serif" font-size="12" lengthAdjust="spacingAndGlyphs" textLength="7" x="185" y="643.2227">a</text><rect fill="#FEFECE" filter="url(#fb6u3nr)" height="52.7031" rx="12.5" ry="12.5" style="stroke: #A80036; stroke-width: 1.5;" width="50" x="180" y="711.1563"/><line style="stroke: #A80036; stroke-width: 1.5;" x1="180" x2="230" y1="738.7656" y2="738.7656"/><text fill="#000000" font-family="sans-serif" font-size="14" lengthAdjust="spacingAndGlyphs" textLength="8" x="201" y="730.6895">8</text><text fill="#000000" font-family="sans-serif" font-size="12" lengthAdjust="spacingAndGlyphs" textLength="7" x="185" y="756.2227">a</text><rect fill="#FEFECE" filter="url(#fb6u3nr)" height="52.7031" rx="12.5" ry="12.5" style="stroke: #A80036; stroke-width: 1.5;" width="50" x="180" y="824.1563"/><line style="stroke: #A80036; stroke-width: 1.5;" x1="180" x2="230" y1="851.7656" y2="851.7656"/><text fill="#000000" font-family="sans-serif" font-size="14" lengthAdjust="spacingAndGlyphs" textLength="8" x="201" y="843.6895">9</text><text fill="#000000" font-family="sans-serif" font-size="12" lengthAdjust="spacingAndGlyphs" textLength="7" x="185" y="869.2227">a</text><rect fill="#FEFECE" filter="url(#fb6u3nr)" height="52.7031" rx="12.5" ry="12.5" style="stroke: #A80036; stroke-width: 1.5;" width="50" x="180" y="937.1563"/><line style="stroke: #A80036; stroke-width: 1.5;" x1="180" x2="230" y1="964.7656" y2="964.7656"/><text fill="#000000" font-family="sans-serif" font-size="14" lengthAdjust="spacingAndGlyphs" textLength="16" x="197" y="956.6895">10</text><text fill="#000000" font-family="sans-serif" font-size="12" lengthAdjust="spacingAndGlyphs" textLength="7" x="185" y="982.2227">a</text><path d="M61.1172,59.6563 C70.9441,59.6563 80.7711,59.6563 90.5981,59.6563 " fill="none" style="stroke: #A80036; stroke-width: 1.0;"/><polygon fill="#A80036" points="95.7369,59.6563,86.7369,55.6563,90.7369,59.6563,86.7369,63.6563,95.7369,59.6563" style="stroke: #A80036; stroke-width: 1.0;"/><path d="M121,86.3963 C121,102.6563 121,123.7362 121,140.8663 " fill="none" style="stroke: #A80036; stroke-width: 1.0;"/><polygon fill="#A80036" points="121,146.0463,125.0257,137.0577,121.0143,141.0463,117.0257,137.0349,121,146.0463" style="stroke: #A80036; stroke-width: 1.0;"/><path d="M110.563,199.3963 C103.9179,215.7963 95.2797,237.0992 88.3016,254.3122 " fill="none" style="stroke: #A80036; stroke-width: 1.0;"/><polygon fill="#A80036" points="86.3804,259.0513,93.4688,252.2135,88.259,254.4176,86.0549,249.2078,86.3804,259.0513" style="stroke: #A80036; stroke-width: 1.0;"/><path d="M74.8403,312.4013 C74.1083,328.6523 73.1586,349.7352 72.3868,366.8703 " fill="none" style="stroke: #A80036; stroke-width: 1.0;"/><polygon fill="#A80036" points="72.1534,372.0513,76.5556,363.241,72.3791,367.0563,68.5638,362.8799,72.1534,372.0513" style="stroke: #A80036; stroke-width: 1.0;"/><path d="M68.6807,425.4013 C67.2166,441.6523 65.3172,462.7352 63.7735,479.8703 " fill="none" style="stroke: #A80036; stroke-width: 1.0;"/><polygon fill="#A80036" points="63.3068,485.0513,68.0981,476.4464,63.7554,480.0714,60.1304,475.7287,63.3068,485.0513" style="stroke: #A80036; stroke-width: 1.0;"/><path d="M56.1294,538.4013 C53.0548,554.6523 49.066,575.7353 45.8244,592.8703 " fill="none" style="stroke: #A80036; stroke-width: 1.0;"/><polygon fill="#A80036" points="44.8442,598.0513,50.4461,589.9507,45.7728,593.1382,42.5853,588.4649,44.8442,598.0513" style="stroke: #A80036; stroke-width: 1.0;"/><path d="M37.9126,651.4013 C36.5949,667.6523 34.8854,688.7353 33.4962,705.8702 " fill="none" style="stroke: #A80036; stroke-width: 1.0;"/><polygon fill="#A80036" points="33.0761,711.0513,37.7907,702.4042,33.4804,706.0676,29.8169,701.7573,33.0761,711.0513" style="stroke: #A80036; stroke-width: 1.0;"/><path d="M56.2777,718.7072 C73.7734,712.9653 91,719.2813 91,737.6563 C91,754.3083 76.852,761.0573 61.1773,757.9023 " fill="none" style="stroke: #A80036; stroke-width: 1.0;"/><polygon fill="#A80036" points="56.2777,756.6053,63.9546,762.775,61.1112,757.8846,66.0016,755.0413,56.2777,756.6053" style="stroke: #A80036; stroke-width: 1.0;"/><path d="M131.437,199.3963 C138.082,215.7963 146.72,237.0992 153.698,254.3122 " fill="none" style="stroke: #A80036; stroke-width: 1.0;"/><polygon fill="#A80036" points="155.62,259.0513,155.946,249.2078,153.7416,254.4175,148.5319,252.2132,155.62,259.0513" style="stroke: #A80036; stroke-width: 1.0;"/><path d="M166,312.4013 C166,328.6523 166,349.7352 166,366.8703 " fill="none" style="stroke: #A80036; stroke-width: 1.0;"/><polygon fill="#A80036" points="166,372.0513,170,363.0513,166,367.0513,162,363.0513,166,372.0513" style="stroke: #A80036; stroke-width: 1.0;"/><path d="M166,425.4013 C166,441.6523 166,462.7352 166,479.8703 " fill="none" style="stroke: #A80036; stroke-width: 1.0;"/><polygon fill="#A80036" points="166,485.0513,170,476.0513,166,480.0513,162,476.0513,166,485.0513" style="stroke: #A80036; stroke-width: 1.0;"/><path d="M158.573,538.2723 C147.257,579.6253 127,663.8273 127,736.6563 C127,736.6563 127,736.6563 127,851.6563 C127,924.5632 164.308,1003.7663 187.32,1045.6853 " fill="none" style="stroke: #A80036; stroke-width: 1.0;"/><polygon fill="#A80036" points="189.776,1050.1163,188.9144,1040.3052,187.3534,1045.7424,181.9162,1044.1814,189.776,1050.1163" style="stroke: #A80036; stroke-width: 1.0;"/><path d="M214.045,1103.4013 C219.805,1119.7922 227.291,1141.0996 233.339,1158.3125 " fill="none" style="stroke: #A80036; stroke-width: 1.0;"/><polygon fill="#A80036" points="235.004,1163.0513,235.7944,1153.2342,233.3465,1158.334,228.2467,1155.8861,235.004,1163.0513" style="stroke: #A80036; stroke-width: 1.0;"/><path d="M251.427,1163.0399 C262.743,1121.6868 283,1037.4853 283,964.6563 C283,510.6563 283,510.6563 283,510.6563 C283,433.5132 227.807,356.6703 193.238,316.1052 " fill="none" style="stroke: #A80036; stroke-width: 1.0;"/><polygon fill="#A80036" points="189.959,312.2943,192.7975,321.7252,193.2204,316.0842,198.8614,316.507,189.959,312.2943" style="stroke: #A80036; stroke-width: 1.0;"/><path d="M175.045,538.4013 C180.805,554.7923 188.291,576.0993 194.339,593.3123 " fill="none" style="stroke: #A80036; stroke-width: 1.0;"/><polygon fill="#A80036" points="196.004,598.0513,196.7949,588.2342,194.3468,593.3339,189.2471,590.8858,196.004,598.0513" style="stroke: #A80036; stroke-width: 1.0;"/><path d="M205,651.4013 C205,667.6523 205,688.7353 205,705.8702 " fill="none" style="stroke: #A80036; stroke-width: 1.0;"/><polygon fill="#A80036" points="205,711.0513,209,702.0513,205,706.0513,201,702.0513,205,711.0513" style="stroke: #A80036; stroke-width: 1.0;"/><path d="M205,764.4013 C205,780.6523 205,801.7353 205,818.8702 " fill="none" style="stroke: #A80036; stroke-width: 1.0;"/><polygon fill="#A80036" points="205,824.0513,209,815.0513,205,819.0513,201,815.0513,205,824.0513" style="stroke: #A80036; stroke-width: 1.0;"/><path d="M205,877.4013 C205,893.6523 205,914.7353 205,931.8702 " fill="none" style="stroke: #A80036; stroke-width: 1.0;"/><polygon fill="#A80036" points="205,937.0513,209,928.0513,205,932.0513,201,928.0513,205,937.0513" style="stroke: #A80036; stroke-width: 1.0;"/><path d="M205,990.4013 C205,1006.6523 205,1027.7353 205,1044.8703 " fill="none" style="stroke: #A80036; stroke-width: 1.0;"/><polygon fill="#A80036" points="205,1050.0513,209,1041.0513,205,1045.0513,201,1041.0513,205,1050.0513" style="stroke: #A80036; stroke-width: 1.0;"/></g></svg>