<?xml version="1.0" encoding="UTF-8" standalone="no"?><svg xmlns="http://www.w3.org/2000/svg" xmlns:xlink="http://www.w3.org/1999/xlink" contentScriptType="application/ecmascript" contentStyleType="text/css" height="670px" preserveAspectRatio="none" style="width:442px;height:670px;" version="1.1" viewBox="0 0 442 670" width="442px" zoomAndPan="magnify"><defs><filter height="300%" id="fd73ap462m9rb" width="300%" x="-1" y="-1"><feGaussianBlur result="blurOut" stdDeviation="2.0"/><feColorMatrix in="blurOut" result="blurOut2" type="matrix" values="0 0 0 0 0 0 0 0 0 0 0 0 0 0 0 0 0 0 .4 0"/><feOffset dx="4.0" dy="4.0" in="blurOut2" result="blurOut3"/><feBlend in="SourceGraphic" in2="blurOut3" mode="normal"/></filter></defs><g><text fill="#888888" font-family="sans-serif" font-size="10" lengthAdjust="spacingAndGlyphs" textLength="0" x="430" y="10.3809"/><text fill="#888888" font-family="sans-serif" font-size="10" lengthAdjust="spacingAndGlyphs" textLength="0" x="430" y="22.959"/><ellipse cx="80.1182" cy="58.1563" fill="#000000" filter="url(#fd73ap462m9rb)" rx="10" ry="10" style="stroke: none; stroke-width: 1.0;"/><rect fill="#FEFECE" filter="url(#fd73ap462m9rb)" height="50" rx="12.5" ry="12.5" style="stroke: #A80036; stroke-width: 1.5;" width="61" x="125.618" y="33.1563"/><line style="stroke: #A80036; stroke-width: 1.5;" x1="125.618" x2="186.618" y1="60.7656" y2="60.7656"/><text fill="#000000" font-family="sans-serif" font-size="14" lengthAdjust="spacingAndGlyphs" textLength="41" x="135.618" y="52.6895">State0</text><rect fill="#FEFECE" filter="url(#fd73ap462m9rb)" height="50" rx="12.5" ry="12.5" style="stroke: #A80036; stroke-width: 1.5;" width="61" x="125.618" y="177.1563"/><line style="stroke: #A80036; stroke-width: 1.5;" x1="125.618" x2="186.618" y1="204.7656" y2="204.7656"/><text fill="#000000" font-family="sans-serif" font-size="14" lengthAdjust="spacingAndGlyphs" textLength="41" x="135.618" y="196.6895">State1</text><rect fill="#FEFECE" filter="url(#fd73ap462m9rb)" height="50" rx="12.5" ry="12.5" style="stroke: #A80036; stroke-width: 1.5;" width="61" x="11.6182" y="321.1563"/><line style="stroke: #A80036; stroke-width: 1.5;" x1="11.6182" x2="72.6182" y1="348.7656" y2="348.7656"/><text fill="#000000" font-family="sans-serif" font-size="14" lengthAdjust="spacingAndGlyphs" textLength="41" x="21.6182" y="340.6895">State2</text><rect fill="#FEFECE" filter="url(#fd73ap462m9rb)" height="50" rx="12.5" ry="12.5" style="stroke: #A80036; stroke-width: 1.5;" width="61" x="12.6182" y="465.1563"/><line style="stroke: #A80036; stroke-width: 1.5;" x1="12.6182" x2="73.6182" y1="492.7656" y2="492.7656"/><text fill="#000000" font-family="sans-serif" font-size="14" lengthAdjust="spacingAndGlyphs" textLength="41" x="22.6182" y="484.6895">State3</text><rect fill="#FEFECE" filter="url(#fd73ap462m9rb)" height="50" rx="12.5" ry="12.5" style="stroke: #A80036; stroke-width: 1.5;" width="61" x="140.618" y="609.1563"/><line style="stroke: #A80036; stroke-width: 1.5;" x1="140.618" x2="201.618" y1="636.7656" y2="636.7656"/><text fill="#000000" font-family="sans-serif" font-size="14" lengthAdjust="spacingAndGlyphs" textLength="41" x="150.618" y="628.6895">State4</text><!--MD5=[6bf52256a5a3d79cde37855053ede169]
link *start to State0--><path d="M90.212,58.1563 C100.2235,58.1563 110.235,58.1563 120.247,58.1563 " fill="none" id="*start-&gt;State0" style="stroke: #A80036; stroke-width: 1.0;"/><polygon fill="#A80036" points="125.482,58.1563,116.482,54.1563,120.482,58.1563,116.482,62.1563,125.482,58.1563" style="stroke: #A80036; stroke-width: 1.0;"/><!--MD5=[a9c2f088fcd292d29c9f53cd9a680591]
link State0 to State1--><path d="M156.118,83.2442 C156.118,107.7242 156.118,145.6722 156.118,171.8732 " fill="none" id="State0-&gt;State1" style="stroke: #A80036; stroke-width: 1.0;"/><polygon fill="#A80036" points="156.118,176.9493,160.118,167.9493,156.118,171.9493,152.118,167.9493,156.118,176.9493" style="stroke: #A80036; stroke-width: 1.0;"/><text fill="#000000" font-family="sans-serif" font-size="13" lengthAdjust="spacingAndGlyphs" textLength="76" x="211.618" y="127.6514">[white,black]!</text><text fill="#000000" font-family="sans-serif" font-size="13" lengthAdjust="spacingAndGlyphs" textLength="185" x="157.118" y="144.0029">discourje.examples.chess.Move</text><!--MD5=[dc702cd49c4e27e6abb2620dc4bb28d8]
link State1 to State2--><path d="M136.78,227.2443 C116.881,252.0303 85.8985,290.6233 64.8425,316.8503 " fill="none" id="State1-&gt;State2" style="stroke: #A80036; stroke-width: 1.0;"/><polygon fill="#A80036" points="61.5516,320.9493,70.305,316.435,64.6817,317.0502,64.0664,311.4269,61.5516,320.9493" style="stroke: #A80036; stroke-width: 1.0;"/><text fill="#000000" font-family="sans-serif" font-size="13" lengthAdjust="spacingAndGlyphs" textLength="80" x="114.118" y="271.6514">[white,black]?</text><text fill="#000000" font-family="sans-serif" font-size="13" lengthAdjust="spacingAndGlyphs" textLength="0" x="156.118" y="288.0029"/><!--MD5=[428d136baf6462f9e03ffacdcb621855]
link State2 to State3--><path d="M23.4309,371.3603 C17.6669,380.2373 12.0643,390.6853 9.1182,401.1563 C5.0254,415.7023 4.9282,420.6373 9.1182,435.1563 C11.6841,444.0472 16.1955,452.8853 21.1095,460.7583 " fill="none" id="State2-&gt;State3" style="stroke: #A80036; stroke-width: 1.0;"/><polygon fill="#A80036" points="23.8711,465.0273,22.3413,455.2979,21.1554,460.8291,15.6242,459.6431,23.8711,465.0273" style="stroke: #A80036; stroke-width: 1.0;"/><text fill="#000000" font-family="sans-serif" font-size="13" lengthAdjust="spacingAndGlyphs" textLength="76" x="64.6182" y="415.6514">[black,white]!</text><text fill="#000000" font-family="sans-serif" font-size="13" lengthAdjust="spacingAndGlyphs" textLength="185" x="10.1182" y="432.0029">discourje.examples.chess.Move</text><!--MD5=[ba4168f70349cc0467fd74c2e3858fc7]
link State3 to State4--><path d="M64.8317,515.2443 C87.2659,540.1323 122.248,578.9408 145.894,605.1737 " fill="none" id="State3-&gt;State4" style="stroke: #A80036; stroke-width: 1.0;"/><polygon fill="#A80036" points="149.298,608.9498,146.2419,599.587,145.9498,605.2363,140.3005,604.9442,149.298,608.9498" style="stroke: #A80036; stroke-width: 1.0;"/><text fill="#000000" font-family="sans-serif" font-size="13" lengthAdjust="spacingAndGlyphs" textLength="80" x="124.118" y="559.6514">[black,white]?</text><text fill="#000000" font-family="sans-serif" font-size="13" lengthAdjust="spacingAndGlyphs" textLength="0" x="166.118" y="576.0029"/><!--MD5=[df93601a1d904fa7528a61bbdab7fbc6]
link State4 to State1--><path d="M195.271,609.1501 C202.444,600.4451 209.379,590.0533 213.118,579.1563 C218.022,564.8631 213.38,560.2651 213.118,545.1563 C210.896,417.0983 250.084,376.3113 203.118,257.1563 C199.465,247.8883 193.492,239.1293 187.009,231.4703 " fill="none" id="State4-&gt;State1" style="stroke: #A80036; stroke-width: 1.0;"/><polygon fill="#A80036" points="183.367,227.3323,186.3103,236.731,186.6703,231.0856,192.3157,231.4457,183.367,227.3323" style="stroke: #A80036; stroke-width: 1.0;"/><text fill="#000000" font-family="sans-serif" font-size="13" lengthAdjust="spacingAndGlyphs" textLength="76" x="280.618" y="415.6514">[white,black]!</text><text fill="#000000" font-family="sans-serif" font-size="13" lengthAdjust="spacingAndGlyphs" textLength="185" x="226.118" y="432.0029">discourje.examples.chess.Move</text><!--MD5=[b6fb3e5ffdf47f2fd3b72b519341a4a5]
@startuml
 header


 endheader


[*] -> State0 
State0- ->State1:[white,black]!\ndiscourje.examples.chess.Move
State1- ->State2:[white,black]?\n
State2- ->State3:[black,white]!\ndiscourje.examples.chess.Move
State3- ->State4:[black,white]?\n
State4- ->State1:[white,black]!\ndiscourje.examples.chess.Move
@enduml 

PlantUML version 1.2020.07(Sun Apr 19 13:42:40 CEST 2020)
(GPL source distribution)
Java Runtime: OpenJDK Runtime Environment
JVM: OpenJDK 64-Bit Server VM
Java Version: 12+32
Operating System: Windows 10
Default Encoding: windows-1252
Language: en
Country: US
--></g></svg>