<?xml version="1.0" encoding="UTF-8" standalone="no"?><svg xmlns="http://www.w3.org/2000/svg" xmlns:xlink="http://www.w3.org/1999/xlink" contentScriptType="application/ecmascript" contentStyleType="text/css" height="670px" preserveAspectRatio="none" style="width:679px;height:670px;" version="1.1" viewBox="0 0 679 670" width="679px" zoomAndPan="magnify"><defs><filter height="300%" id="fufluceo4p329" width="300%" x="-1" y="-1"><feGaussianBlur result="blurOut" stdDeviation="2.0"/><feColorMatrix in="blurOut" result="blurOut2" type="matrix" values="0 0 0 0 0 0 0 0 0 0 0 0 0 0 0 0 0 0 .4 0"/><feOffset dx="4.0" dy="4.0" in="blurOut2" result="blurOut3"/><feBlend in="SourceGraphic" in2="blurOut3" mode="normal"/></filter></defs><g><text fill="#888888" font-family="sans-serif" font-size="10" lengthAdjust="spacingAndGlyphs" textLength="0" x="667" y="10.3809"/><text fill="#888888" font-family="sans-serif" font-size="10" lengthAdjust="spacingAndGlyphs" textLength="0" x="667" y="22.959"/><ellipse cx="244.175" cy="58.1563" fill="#000000" filter="url(#fufluceo4p329)" rx="10" ry="10" style="stroke: none; stroke-width: 1.0;"/><rect fill="#FEFECE" filter="url(#fufluceo4p329)" height="50" rx="12.5" ry="12.5" style="stroke: #A80036; stroke-width: 1.5;" width="61" x="289.675" y="33.1563"/><line style="stroke: #A80036; stroke-width: 1.5;" x1="289.675" x2="350.675" y1="60.7656" y2="60.7656"/><text fill="#000000" font-family="sans-serif" font-size="14" lengthAdjust="spacingAndGlyphs" textLength="41" x="299.675" y="52.6895">State0</text><rect fill="#FEFECE" filter="url(#fufluceo4p329)" height="50" rx="12.5" ry="12.5" style="stroke: #A80036; stroke-width: 1.5;" width="61" x="184.675" y="177.1563"/><line style="stroke: #A80036; stroke-width: 1.5;" x1="184.675" x2="245.675" y1="204.7656" y2="204.7656"/><text fill="#000000" font-family="sans-serif" font-size="14" lengthAdjust="spacingAndGlyphs" textLength="41" x="194.675" y="196.6895">State2</text><rect fill="#FEFECE" filter="url(#fufluceo4p329)" height="50" rx="12.5" ry="12.5" style="stroke: #A80036; stroke-width: 1.5;" width="61" x="184.675" y="465.1563"/><line style="stroke: #A80036; stroke-width: 1.5;" x1="184.675" x2="245.675" y1="492.7656" y2="492.7656"/><text fill="#000000" font-family="sans-serif" font-size="14" lengthAdjust="spacingAndGlyphs" textLength="41" x="194.675" y="484.6895">State1</text><rect fill="#FEFECE" filter="url(#fufluceo4p329)" height="50" rx="12.5" ry="12.5" style="stroke: #A80036; stroke-width: 1.5;" width="61" x="184.675" y="321.1563"/><line style="stroke: #A80036; stroke-width: 1.5;" x1="184.675" x2="245.675" y1="348.7656" y2="348.7656"/><text fill="#000000" font-family="sans-serif" font-size="14" lengthAdjust="spacingAndGlyphs" textLength="41" x="194.675" y="340.6895">State4</text><rect fill="#FEFECE" filter="url(#fufluceo4p329)" height="50" rx="12.5" ry="12.5" style="stroke: #A80036; stroke-width: 1.5;" width="61" x="28.6755" y="609.1563"/><line style="stroke: #A80036; stroke-width: 1.5;" x1="28.6755" x2="89.6755" y1="636.7656" y2="636.7656"/><text fill="#000000" font-family="sans-serif" font-size="14" lengthAdjust="spacingAndGlyphs" textLength="41" x="38.6755" y="628.6895">State3</text><!--MD5=[6bf52256a5a3d79cde37855053ede169]
link *start to State0--><path d="M254.269,58.1563 C264.281,58.1563 274.292,58.1563 284.304,58.1563 " fill="none" id="*start-&gt;State0" style="stroke: #A80036; stroke-width: 1.0;"/><polygon fill="#A80036" points="289.539,58.1563,280.539,54.1563,284.539,58.1563,280.539,62.1563,289.539,58.1563" style="stroke: #A80036; stroke-width: 1.0;"/><!--MD5=[d85cfe1136b46ce6e76b687245b901bd]
link State0 to State2--><path d="M289.441,74.2843 C257.716,89.9353 212.745,112.2342 212.175,113.1563 C201.45,130.5103 202.722,153.6853 206.398,171.8963 " fill="none" id="State0-&gt;State2" style="stroke: #A80036; stroke-width: 1.0;"/><polygon fill="#A80036" points="207.491,176.8923,209.4751,167.2453,206.4224,172.0078,201.6599,168.9551,207.491,176.8923" style="stroke: #A80036; stroke-width: 1.0;"/><text fill="#000000" font-family="sans-serif" font-size="13" lengthAdjust="spacingAndGlyphs" textLength="115" x="248.175" y="127.6514">[player[2],player[1]]!</text><text fill="#000000" font-family="sans-serif" font-size="13" lengthAdjust="spacingAndGlyphs" textLength="185" x="213.175" y="144.0029">discourje.examples.chess.Move</text><!--MD5=[a9c2f088fcd292d29c9f53cd9a680591]
link State0 to State1--><path d="M350.859,70.2713 C369.634,78.8552 392.11,92.7563 403.175,113.1563 C471.409,238.9533 489.276,320.8433 403.175,435.1563 C384.855,459.4793 299.939,476.2252 250.725,484.0733 " fill="none" id="State0-&gt;State1" style="stroke: #A80036; stroke-width: 1.0;"/><polygon fill="#A80036" points="245.785,484.8502,255.2974,487.4026,250.7242,484.073,254.0538,479.4998,245.785,484.8502" style="stroke: #A80036; stroke-width: 1.0;"/><text fill="#000000" font-family="sans-serif" font-size="13" lengthAdjust="spacingAndGlyphs" textLength="115" x="498.175" y="271.6514">[player[1],player[2]]!</text><text fill="#000000" font-family="sans-serif" font-size="13" lengthAdjust="spacingAndGlyphs" textLength="185" x="463.175" y="288.0029">discourje.examples.chess.Move</text><!--MD5=[63e758279607f83f8081bda14ccbe935]
link State2 to State4--><path d="M215.175,227.2443 C215.175,251.7242 215.175,289.6723 215.175,315.8733 " fill="none" id="State2-&gt;State4" style="stroke: #A80036; stroke-width: 1.0;"/><polygon fill="#A80036" points="215.175,320.9493,219.175,311.9493,215.175,315.9493,211.175,311.9493,215.175,320.9493" style="stroke: #A80036; stroke-width: 1.0;"/><text fill="#000000" font-family="sans-serif" font-size="13" lengthAdjust="spacingAndGlyphs" textLength="119" x="216.175" y="271.6514">[player[2],player[1]]?</text><text fill="#000000" font-family="sans-serif" font-size="13" lengthAdjust="spacingAndGlyphs" textLength="0" x="277.675" y="288.0029"/><!--MD5=[df93601a1d904fa7528a61bbdab7fbc6]
link State4 to State1--><path d="M213.545,371.3373 C212.992,380.6523 212.446,391.3953 212.175,401.1563 C211.756,416.2613 211.756,420.0513 212.175,435.1563 C212.396,443.0873 212.797,451.6663 213.237,459.6002 " fill="none" id="State4-&gt;State1" style="stroke: #A80036; stroke-width: 1.0;"/><polygon fill="#A80036" points="213.545,464.9752,217.0243,455.7614,213.2593,459.9834,209.0374,456.2185,213.545,464.9752" style="stroke: #A80036; stroke-width: 1.0;"/><text fill="#000000" font-family="sans-serif" font-size="13" lengthAdjust="spacingAndGlyphs" textLength="115" x="248.175" y="415.6514">[player[1],player[2]]!</text><text fill="#000000" font-family="sans-serif" font-size="13" lengthAdjust="spacingAndGlyphs" textLength="185" x="213.175" y="432.0029">discourje.examples.chess.Move</text><!--MD5=[98642968b161d6b5aa442c8e772df306]
link State1 to State3--><path d="M188.712,515.2443 C161.258,540.2343 118.387,579.2591 89.5633,605.4956 " fill="none" id="State1-&gt;State3" style="stroke: #A80036; stroke-width: 1.0;"/><polygon fill="#A80036" points="85.7686,608.9498,95.1167,605.8493,89.4661,605.584,89.7315,599.9333,85.7686,608.9498" style="stroke: #A80036; stroke-width: 1.0;"/><text fill="#000000" font-family="sans-serif" font-size="13" lengthAdjust="spacingAndGlyphs" textLength="119" x="157.175" y="559.6514">[player[1],player[2]]?</text><text fill="#000000" font-family="sans-serif" font-size="13" lengthAdjust="spacingAndGlyphs" textLength="0" x="218.675" y="576.0029"/><!--MD5=[e02c7723171335da44198c95537c2494]
link State3 to State2--><path d="M46.1366,608.8317 C24.7677,565.511 -12.5081,472.8193 17.1755,401.1563 C50.2227,321.3733 132.744,256.9763 180.166,225.0283 " fill="none" id="State3-&gt;State2" style="stroke: #A80036; stroke-width: 1.0;"/><polygon fill="#A80036" points="184.362,222.2253,174.6567,223.9009,180.205,225.0037,179.1022,230.552,184.362,222.2253" style="stroke: #A80036; stroke-width: 1.0;"/><text fill="#000000" font-family="sans-serif" font-size="13" lengthAdjust="spacingAndGlyphs" textLength="115" x="53.1755" y="415.6514">[player[2],player[1]]!</text><text fill="#000000" font-family="sans-serif" font-size="13" lengthAdjust="spacingAndGlyphs" textLength="185" x="18.1755" y="432.0029">discourje.examples.chess.Move</text><!--MD5=[d8c3f9c50666d90d707df93e23215cfc]
@startuml
 header


 endheader


[*] -> State0 
State0- ->State2:[player[2],player[1]]!\ndiscourje.examples.chess.Move
State0- ->State1:[player[1],player[2]]!\ndiscourje.examples.chess.Move
State2- ->State4:[player[2],player[1]]?\n
State4- ->State1:[player[1],player[2]]!\ndiscourje.examples.chess.Move
State1- ->State3:[player[1],player[2]]?\n
State3- ->State2:[player[2],player[1]]!\ndiscourje.examples.chess.Move
@enduml 

PlantUML version 1.2020.07(Sun Apr 19 13:42:40 CEST 2020)
(GPL source distribution)
Java Runtime: OpenJDK Runtime Environment
JVM: OpenJDK 64-Bit Server VM
Java Version: 12+32
Operating System: Windows 10
Default Encoding: windows-1252
Language: en
Country: US
--></g></svg>