<?xml version="1.0" encoding="UTF-8" standalone="no"?><svg xmlns="http://www.w3.org/2000/svg" xmlns:xlink="http://www.w3.org/1999/xlink" contentScriptType="application/ecmascript" contentStyleType="text/css" height="670px" preserveAspectRatio="none" style="width:458px;height:670px;" version="1.1" viewBox="0 0 458 670" width="458px" zoomAndPan="magnify"><defs><filter height="300%" id="f16danbpn74gl3" width="300%" x="-1" y="-1"><feGaussianBlur result="blurOut" stdDeviation="2.0"/><feColorMatrix in="blurOut" result="blurOut2" type="matrix" values="0 0 0 0 0 0 0 0 0 0 0 0 0 0 0 0 0 0 .4 0"/><feOffset dx="4.0" dy="4.0" in="blurOut2" result="blurOut3"/><feBlend in="SourceGraphic" in2="blurOut3" mode="normal"/></filter></defs><g><text fill="#888888" font-family="sans-serif" font-size="10" lengthAdjust="spacingAndGlyphs" textLength="0" x="446" y="10.3809"/><text fill="#888888" font-family="sans-serif" font-size="10" lengthAdjust="spacingAndGlyphs" textLength="0" x="446" y="22.959"/><ellipse cx="133.416" cy="58.1563" fill="#000000" filter="url(#f16danbpn74gl3)" rx="10" ry="10" style="stroke: none; stroke-width: 1.0;"/><rect fill="#FEFECE" filter="url(#f16danbpn74gl3)" height="50" rx="12.5" ry="12.5" style="stroke: #A80036; stroke-width: 1.5;" width="61" x="178.916" y="33.1563"/><line style="stroke: #A80036; stroke-width: 1.5;" x1="178.916" x2="239.916" y1="60.7656" y2="60.7656"/><text fill="#000000" font-family="sans-serif" font-size="14" lengthAdjust="spacingAndGlyphs" textLength="41" x="188.916" y="52.6895">State0</text><rect fill="#FEFECE" filter="url(#f16danbpn74gl3)" height="50" rx="12.5" ry="12.5" style="stroke: #A80036; stroke-width: 1.5;" width="61" x="92.9161" y="177.1563"/><line style="stroke: #A80036; stroke-width: 1.5;" x1="92.9161" x2="153.9161" y1="204.7656" y2="204.7656"/><text fill="#000000" font-family="sans-serif" font-size="14" lengthAdjust="spacingAndGlyphs" textLength="41" x="102.9161" y="196.6895">State2</text><rect fill="#FEFECE" filter="url(#f16danbpn74gl3)" height="50" rx="12.5" ry="12.5" style="stroke: #A80036; stroke-width: 1.5;" width="61" x="113.916" y="465.1563"/><line style="stroke: #A80036; stroke-width: 1.5;" x1="113.916" x2="174.916" y1="492.7656" y2="492.7656"/><text fill="#000000" font-family="sans-serif" font-size="14" lengthAdjust="spacingAndGlyphs" textLength="41" x="123.916" y="484.6895">State1</text><rect fill="#FEFECE" filter="url(#f16danbpn74gl3)" height="50" rx="12.5" ry="12.5" style="stroke: #A80036; stroke-width: 1.5;" width="61" x="103.9161" y="321.1563"/><line style="stroke: #A80036; stroke-width: 1.5;" x1="103.9161" x2="164.9161" y1="348.7656" y2="348.7656"/><text fill="#000000" font-family="sans-serif" font-size="14" lengthAdjust="spacingAndGlyphs" textLength="41" x="113.9161" y="340.6895">State4</text><rect fill="#FEFECE" filter="url(#f16danbpn74gl3)" height="50" rx="12.5" ry="12.5" style="stroke: #A80036; stroke-width: 1.5;" width="61" x="9.9161" y="609.1563"/><line style="stroke: #A80036; stroke-width: 1.5;" x1="9.9161" x2="70.9161" y1="636.7656" y2="636.7656"/><text fill="#000000" font-family="sans-serif" font-size="14" lengthAdjust="spacingAndGlyphs" textLength="41" x="19.9161" y="628.6895">State3</text><!--MD5=[6bf52256a5a3d79cde37855053ede169]
link *start to State0--><path d="M143.51,58.1563 C153.521,58.1563 163.533,58.1563 173.545,58.1563 " fill="none" id="*start-&gt;State0" style="stroke: #A80036; stroke-width: 1.0;"/><polygon fill="#A80036" points="178.78,58.1563,169.78,54.1563,173.78,58.1563,169.78,62.1563,178.78,58.1563" style="stroke: #A80036; stroke-width: 1.0;"/><!--MD5=[d85cfe1136b46ce6e76b687245b901bd]
link State0 to State2--><path d="M178.859,76.5723 C165.387,85.7703 150.567,98.2542 141.416,113.1563 C130.619,130.7383 126.175,153.6533 124.4,171.6923 " fill="none" id="State0-&gt;State2" style="stroke: #A80036; stroke-width: 1.0;"/><polygon fill="#A80036" points="123.931,177.1223,128.6926,168.501,124.3624,172.1409,120.7225,167.8107,123.931,177.1223" style="stroke: #A80036; stroke-width: 1.0;"/><text fill="#000000" font-family="sans-serif" font-size="13" lengthAdjust="spacingAndGlyphs" textLength="115" x="142.416" y="127.6514">[player[2],player[1]]!</text><text fill="#000000" font-family="sans-serif" font-size="13" lengthAdjust="spacingAndGlyphs" textLength="28" x="185.916" y="144.0029">Long</text><!--MD5=[a9c2f088fcd292d29c9f53cd9a680591]
link State0 to State1--><path d="M240.055,82.3913 C248.999,90.9713 257.645,101.4833 262.416,113.1563 C316.564,245.6282 339.741,314.7333 262.416,435.1563 C244.424,463.1763 207.875,476.8413 180.193,483.3873 " fill="none" id="State0-&gt;State1" style="stroke: #A80036; stroke-width: 1.0;"/><polygon fill="#A80036" points="175.134,484.5283,184.7941,486.4474,180.0112,483.4268,183.0318,478.6439,175.134,484.5283" style="stroke: #A80036; stroke-width: 1.0;"/><text fill="#000000" font-family="sans-serif" font-size="13" lengthAdjust="spacingAndGlyphs" textLength="115" x="312.416" y="271.6514">[player[1],player[2]]!</text><text fill="#000000" font-family="sans-serif" font-size="13" lengthAdjust="spacingAndGlyphs" textLength="28" x="355.916" y="288.0029">Long</text><!--MD5=[63e758279607f83f8081bda14ccbe935]
link State2 to State4--><path d="M120.528,227.1563 C118.894,244.9033 117.67,269.6233 120.416,291.1563 C121.461,299.3513 123.364,308.0793 125.437,316.0773 " fill="none" id="State2-&gt;State4" style="stroke: #A80036; stroke-width: 1.0;"/><polygon fill="#A80036" points="126.744,320.9503,128.2755,311.2212,125.4485,316.121,120.5487,313.294,126.744,320.9503" style="stroke: #A80036; stroke-width: 1.0;"/><text fill="#000000" font-family="sans-serif" font-size="13" lengthAdjust="spacingAndGlyphs" textLength="119" x="121.416" y="271.6514">[player[2],player[1]]?</text><text fill="#000000" font-family="sans-serif" font-size="13" lengthAdjust="spacingAndGlyphs" textLength="31" x="165.416" y="288.0029">nope!</text><!--MD5=[df93601a1d904fa7528a61bbdab7fbc6]
link State4 to State1--><path d="M136.112,371.2443 C137.836,395.7243 140.509,433.6722 142.354,459.8733 " fill="none" id="State4-&gt;State1" style="stroke: #A80036; stroke-width: 1.0;"/><polygon fill="#A80036" points="142.711,464.9493,146.0687,455.6904,142.3596,459.9616,138.0884,456.2526,142.711,464.9493" style="stroke: #A80036; stroke-width: 1.0;"/><text fill="#000000" font-family="sans-serif" font-size="13" lengthAdjust="spacingAndGlyphs" textLength="115" x="142.416" y="415.6514">[player[1],player[2]]!</text><text fill="#000000" font-family="sans-serif" font-size="13" lengthAdjust="spacingAndGlyphs" textLength="28" x="185.916" y="432.0029">Long</text><!--MD5=[98642968b161d6b5aa442c8e772df306]
link State1 to State3--><path d="M126.774,515.2443 C108.621,540.0303 80.3561,578.6229 61.1471,604.8506 " fill="none" id="State1-&gt;State3" style="stroke: #A80036; stroke-width: 1.0;"/><polygon fill="#A80036" points="58.1448,608.9498,66.6897,604.0524,61.0992,604.9159,60.2357,599.3254,58.1448,608.9498" style="stroke: #A80036; stroke-width: 1.0;"/><text fill="#000000" font-family="sans-serif" font-size="13" lengthAdjust="spacingAndGlyphs" textLength="119" x="106.4161" y="559.6514">[player[1],player[2]]?</text><text fill="#000000" font-family="sans-serif" font-size="13" lengthAdjust="spacingAndGlyphs" textLength="31" x="150.4161" y="576.0029">nope!</text><!--MD5=[e02c7723171335da44198c95537c2494]
link State3 to State2--><path d="M31.8856,609.0457 C18.0701,566.4431 -5.8081,475.3452 13.4161,401.1563 C30.4303,335.4963 74.4549,268.4293 101.3674,231.6593 " fill="none" id="State3-&gt;State2" style="stroke: #A80036; stroke-width: 1.0;"/><polygon fill="#A80036" points="104.5617,227.3273,96.0012,232.1974,101.5945,231.3516,102.4402,236.9449,104.5617,227.3273" style="stroke: #A80036; stroke-width: 1.0;"/><text fill="#000000" font-family="sans-serif" font-size="13" lengthAdjust="spacingAndGlyphs" textLength="115" x="14.4161" y="415.6514">[player[2],player[1]]!</text><text fill="#000000" font-family="sans-serif" font-size="13" lengthAdjust="spacingAndGlyphs" textLength="28" x="57.9161" y="432.0029">Long</text><!--MD5=[9400bba6665d33b43195e8de90079d54]
@startuml
 header


 endheader


[*] -> State0 
State0- ->State2:[player[2],player[1]]!\nLong
State0- ->State1:[player[1],player[2]]!\nLong
State2- ->State4:[player[2],player[1]]?\nnope!
State4- ->State1:[player[1],player[2]]!\nLong
State1- ->State3:[player[1],player[2]]?\nnope!
State3- ->State2:[player[2],player[1]]!\nLong
@enduml 

PlantUML version 1.2020.07(Sun Apr 19 13:42:40 CEST 2020)
(GPL source distribution)
Java Runtime: OpenJDK Runtime Environment
JVM: OpenJDK 64-Bit Server VM
Java Version: 12+32
Operating System: Windows 10
Default Encoding: windows-1252
Language: en
Country: US
--></g></svg>