<?xml version="1.0" encoding="UTF-8" standalone="no"?><svg xmlns="http://www.w3.org/2000/svg" xmlns:xlink="http://www.w3.org/1999/xlink" contentScriptType="application/ecmascript" contentStyleType="text/css" height="382px" preserveAspectRatio="none" style="width:1997px;height:382px;" version="1.1" viewBox="0 0 1997 382" width="1997px" zoomAndPan="magnify"><defs><filter height="300%" id="f1velkot7j93fr" width="300%" x="-1" y="-1"><feGaussianBlur result="blurOut" stdDeviation="2.0"/><feColorMatrix in="blurOut" result="blurOut2" type="matrix" values="0 0 0 0 0 0 0 0 0 0 0 0 0 0 0 0 0 0 .4 0"/><feOffset dx="4.0" dy="4.0" in="blurOut2" result="blurOut3"/><feBlend in="SourceGraphic" in2="blurOut3" mode="normal"/></filter></defs><g><text fill="#888888" font-family="sans-serif" font-size="10" lengthAdjust="spacingAndGlyphs" textLength="0" x="1985" y="10.3809"/><text fill="#888888" font-family="sans-serif" font-size="10" lengthAdjust="spacingAndGlyphs" textLength="0" x="1985" y="22.959"/><ellipse cx="16" cy="58.1563" fill="#000000" filter="url(#f1velkot7j93fr)" rx="10" ry="10" style="stroke: none; stroke-width: 1.0;"/><rect fill="#FEFECE" filter="url(#f1velkot7j93fr)" height="50" rx="12.5" ry="12.5" style="stroke: #A80036; stroke-width: 1.5;" width="61" x="61.5" y="33.1563"/><line style="stroke: #A80036; stroke-width: 1.5;" x1="61.5" x2="122.5" y1="60.7656" y2="60.7656"/><text fill="#000000" font-family="sans-serif" font-size="14" lengthAdjust="spacingAndGlyphs" textLength="41" x="71.5" y="52.6895">State0</text><rect fill="#FEFECE" filter="url(#f1velkot7j93fr)" height="50" rx="12.5" ry="12.5" style="stroke: #A80036; stroke-width: 1.5;" width="61" x="61.5" y="177.1563"/><line style="stroke: #A80036; stroke-width: 1.5;" x1="61.5" x2="122.5" y1="204.7656" y2="204.7656"/><text fill="#000000" font-family="sans-serif" font-size="14" lengthAdjust="spacingAndGlyphs" textLength="41" x="71.5" y="196.6895">State1</text><rect fill="#FEFECE" filter="url(#f1velkot7j93fr)" height="50" rx="12.5" ry="12.5" style="stroke: #A80036; stroke-width: 1.5;" width="61" x="738.5" y="321.1563"/><line style="stroke: #A80036; stroke-width: 1.5;" x1="738.5" x2="799.5" y1="348.7656" y2="348.7656"/><text fill="#000000" font-family="sans-serif" font-size="14" lengthAdjust="spacingAndGlyphs" textLength="41" x="748.5" y="340.6895">State2</text><rect fill="#FEFECE" filter="url(#f1velkot7j93fr)" height="50" rx="12.5" ry="12.5" style="stroke: #A80036; stroke-width: 1.5;" width="61" x="510.5" y="33.1563"/><line style="stroke: #A80036; stroke-width: 1.5;" x1="510.5" x2="571.5" y1="60.7656" y2="60.7656"/><text fill="#000000" font-family="sans-serif" font-size="14" lengthAdjust="spacingAndGlyphs" textLength="41" x="520.5" y="52.6895">State3</text><rect fill="#FEFECE" filter="url(#f1velkot7j93fr)" height="50" rx="12.5" ry="12.5" style="stroke: #A80036; stroke-width: 1.5;" width="61" x="510.5" y="177.1563"/><line style="stroke: #A80036; stroke-width: 1.5;" x1="510.5" x2="571.5" y1="204.7656" y2="204.7656"/><text fill="#000000" font-family="sans-serif" font-size="14" lengthAdjust="spacingAndGlyphs" textLength="41" x="520.5" y="196.6895">State4</text><rect fill="#FEFECE" filter="url(#f1velkot7j93fr)" height="50" rx="12.5" ry="12.5" style="stroke: #A80036; stroke-width: 1.5;" width="61" x="967.5" y="177.1563"/><line style="stroke: #A80036; stroke-width: 1.5;" x1="967.5" x2="1028.5" y1="204.7656" y2="204.7656"/><text fill="#000000" font-family="sans-serif" font-size="14" lengthAdjust="spacingAndGlyphs" textLength="41" x="977.5" y="196.6895">State5</text><rect fill="#FEFECE" filter="url(#f1velkot7j93fr)" height="50" rx="12.5" ry="12.5" style="stroke: #A80036; stroke-width: 1.5;" width="61" x="1474.5" y="177.1563"/><line style="stroke: #A80036; stroke-width: 1.5;" x1="1474.5" x2="1535.5" y1="204.7656" y2="204.7656"/><text fill="#000000" font-family="sans-serif" font-size="14" lengthAdjust="spacingAndGlyphs" textLength="41" x="1484.5" y="196.6895">State6</text><!--MD5=[6bf52256a5a3d79cde37855053ede169]
link *start to State0--><path d="M26.0938,58.1563 C36.1053,58.1563 46.1169,58.1563 56.1285,58.1563 " fill="none" id="*start-&gt;State0" style="stroke: #A80036; stroke-width: 1.0;"/><polygon fill="#A80036" points="61.3639,58.1563,52.3639,54.1563,56.3639,58.1563,52.3639,62.1563,61.3639,58.1563" style="stroke: #A80036; stroke-width: 1.0;"/><!--MD5=[9d22519d2236472e696d42759a4dae43]
link State0 to State0--><path d="M122.659,45.4482 C140.655,42.7403 157.5,46.9762 157.5,58.1563 C157.5,68.2883 143.666,72.7163 127.677,71.4432 " fill="none" id="State0-&gt;State0" style="stroke: #A80036; stroke-width: 1.0;"/><polygon fill="#A80036" points="122.659,70.8643,131.1415,75.869,127.6261,71.4371,132.058,67.9217,122.659,70.8643" style="stroke: #A80036; stroke-width: 1.0;"/><text fill="#000000" font-family="sans-serif" font-size="13" lengthAdjust="spacingAndGlyphs" textLength="0" x="173.5" y="55.6514"/><text fill="#000000" font-family="sans-serif" font-size="13" lengthAdjust="spacingAndGlyphs" textLength="16" x="163.5" y="72.0029">[ t]</text><!--MD5=[a9c2f088fcd292d29c9f53cd9a680591]
link State0 to State1--><path d="M92,83.2443 C92,107.7242 92,145.6723 92,171.8733 " fill="none" id="State0-&gt;State1" style="stroke: #A80036; stroke-width: 1.0;"/><polygon fill="#A80036" points="92,176.9493,96,167.9493,92,171.9493,88,167.9493,92,176.9493" style="stroke: #A80036; stroke-width: 1.0;"/><text fill="#000000" font-family="sans-serif" font-size="13" lengthAdjust="spacingAndGlyphs" textLength="0" x="189" y="127.6514"/><text fill="#000000" font-family="sans-serif" font-size="13" lengthAdjust="spacingAndGlyphs" textLength="188" x="93" y="144.0029">[ "SEND Move TO w" AccSet[0]]</text><!--MD5=[dcf63a51bdeb3e817e699e6130214cc7]
link State1 to State1--><path d="M122.659,189.4483 C140.655,186.7403 157.5,190.9763 157.5,202.1563 C157.5,212.2883 143.666,216.7163 127.677,215.4433 " fill="none" id="State1-&gt;State1" style="stroke: #A80036; stroke-width: 1.0;"/><polygon fill="#A80036" points="122.659,214.8643,131.1415,219.869,127.6261,215.4371,132.058,211.9217,122.659,214.8643" style="stroke: #A80036; stroke-width: 1.0;"/><text fill="#000000" font-family="sans-serif" font-size="13" lengthAdjust="spacingAndGlyphs" textLength="0" x="327" y="199.6514"/><text fill="#000000" font-family="sans-serif" font-size="13" lengthAdjust="spacingAndGlyphs" textLength="323" x="163.5" y="216.0029">[ !"SEND Move TO b" &amp; !"SEND Move TO w" AccSet[0]]</text><!--MD5=[dc702cd49c4e27e6abb2620dc4bb28d8]
link State1 to State2--><path d="M122.621,226.6483 C151.473,247.4183 196.764,276.6098 241,291.1563 C332.998,321.409 629.897,338.3878 733.183,343.4946 " fill="none" id="State1-&gt;State2" style="stroke: #A80036; stroke-width: 1.0;"/><polygon fill="#A80036" points="738.247,343.743,729.4532,339.308,733.253,343.4987,729.0623,347.2985,738.247,343.743" style="stroke: #A80036; stroke-width: 1.0;"/><text fill="#000000" font-family="sans-serif" font-size="13" lengthAdjust="spacingAndGlyphs" textLength="0" x="404" y="271.6514"/><text fill="#000000" font-family="sans-serif" font-size="13" lengthAdjust="spacingAndGlyphs" textLength="320" x="242" y="288.0029">[ !"SEND Move TO b" &amp; "SEND Move TO w" AccSet[0]]</text><!--MD5=[8ec7ebc35d95dc19dc51ed7d52bc84fe]
link State3 to State3--><path d="M571.659,45.4482 C589.655,42.7403 606.5,46.9762 606.5,58.1563 C606.5,68.2883 592.666,72.7163 576.677,71.4432 " fill="none" id="State3-&gt;State3" style="stroke: #A80036; stroke-width: 1.0;"/><polygon fill="#A80036" points="571.659,70.8643,580.1415,75.869,576.6261,71.4371,581.058,67.9217,571.659,70.8643" style="stroke: #A80036; stroke-width: 1.0;"/><text fill="#000000" font-family="sans-serif" font-size="13" lengthAdjust="spacingAndGlyphs" textLength="0" x="622.5" y="55.6514"/><text fill="#000000" font-family="sans-serif" font-size="13" lengthAdjust="spacingAndGlyphs" textLength="16" x="612.5" y="72.0029">[ t]</text><!--MD5=[ba4168f70349cc0467fd74c2e3858fc7]
link State3 to State4--><path d="M541,83.2443 C541,107.7242 541,145.6723 541,171.8733 " fill="none" id="State3-&gt;State4" style="stroke: #A80036; stroke-width: 1.0;"/><polygon fill="#A80036" points="541,176.9493,545,167.9493,541,171.9493,537,167.9493,541,176.9493" style="stroke: #A80036; stroke-width: 1.0;"/><text fill="#000000" font-family="sans-serif" font-size="13" lengthAdjust="spacingAndGlyphs" textLength="0" x="637" y="127.6514"/><text fill="#000000" font-family="sans-serif" font-size="13" lengthAdjust="spacingAndGlyphs" textLength="186" x="542" y="144.0029">[ "SEND Move TO b" AccSet[0]]</text><!--MD5=[f1cacab9ab704b9dc4cc3a6169f8b1fc]
link State4 to State4--><path d="M571.659,189.4483 C589.655,186.7403 606.5,190.9763 606.5,202.1563 C606.5,212.2883 592.666,216.7163 576.677,215.4433 " fill="none" id="State4-&gt;State4" style="stroke: #A80036; stroke-width: 1.0;"/><polygon fill="#A80036" points="571.659,214.8643,580.1415,219.869,576.6261,215.4371,581.058,211.9217,571.659,214.8643" style="stroke: #A80036; stroke-width: 1.0;"/><text fill="#000000" font-family="sans-serif" font-size="13" lengthAdjust="spacingAndGlyphs" textLength="0" x="780" y="199.6514"/><text fill="#000000" font-family="sans-serif" font-size="13" lengthAdjust="spacingAndGlyphs" textLength="331" x="612.5" y="216.0029">[ !"&gt;SEND Move TO b" &amp; !"SEND Move TO w" AccSet[0]]</text><!--MD5=[7065fc78f72d7464487d94bfa1e5711f]
link State4 to State2--><path d="M552.485,227.3623 C563.035,247.1593 580.444,274.5104 603,291.1563 C642.162,320.0573 697.52,333.9489 733.34,340.2889 " fill="none" id="State4-&gt;State2" style="stroke: #A80036; stroke-width: 1.0;"/><polygon fill="#A80036" points="738.478,341.1704,730.2842,335.7057,733.55,340.3247,728.9311,343.5905,738.478,341.1704" style="stroke: #A80036; stroke-width: 1.0;"/><text fill="#000000" font-family="sans-serif" font-size="13" lengthAdjust="spacingAndGlyphs" textLength="0" x="770" y="271.6514"/><text fill="#000000" font-family="sans-serif" font-size="13" lengthAdjust="spacingAndGlyphs" textLength="328" x="604" y="288.0029">[ "&gt;SEND Move TO b" &amp; !"SEND Move TO w" AccSet[0]]</text><!--MD5=[a0e946ab347401d0fc5ae1efc248ed82]
link State5 to State5--><path d="M1028.66,189.4483 C1046.66,186.7403 1063.5,190.9763 1063.5,202.1563 C1063.5,212.2883 1049.67,216.7163 1033.68,215.4433 " fill="none" id="State5-&gt;State5" style="stroke: #A80036; stroke-width: 1.0;"/><polygon fill="#A80036" points="1028.66,214.8643,1037.1439,219.8666,1033.6272,215.4357,1038.0582,211.9191,1028.66,214.8643" style="stroke: #A80036; stroke-width: 1.0;"/><text fill="#000000" font-family="sans-serif" font-size="13" lengthAdjust="spacingAndGlyphs" textLength="0" x="1262" y="199.6514"/><text fill="#000000" font-family="sans-serif" font-size="13" lengthAdjust="spacingAndGlyphs" textLength="381" x="1069.5" y="216.0029">[ "SEND Move TO b" | !"SEND Move TO b" &amp; "SEND Move TO w"]</text><!--MD5=[33fa1bc0a05f4b5f431a3419cb146cbe]
link State5 to State2--><path d="M986.808,227.3843 C976.494,247.1943 959.402,274.5526 937,291.1563 C897.354,320.541 841.087,334.3263 804.811,340.5092 " fill="none" id="State5-&gt;State2" style="stroke: #A80036; stroke-width: 1.0;"/><polygon fill="#A80036" points="799.609,341.3673,809.1403,343.8481,804.5422,340.553,807.8374,335.9549,799.609,341.3673" style="stroke: #A80036; stroke-width: 1.0;"/><text fill="#000000" font-family="sans-serif" font-size="13" lengthAdjust="spacingAndGlyphs" textLength="0" x="1133.5" y="271.6514"/><text fill="#000000" font-family="sans-serif" font-size="13" lengthAdjust="spacingAndGlyphs" textLength="323" x="970" y="288.0029">[ !"SEND Move TO b" &amp; !"SEND Move TO w" AccSet[0]]</text><!--MD5=[5cfaac858b2d5ee8454aecfc99f31189]
link State6 to State6--><path d="M1535.66,189.4483 C1553.66,186.7403 1570.5,190.9763 1570.5,202.1563 C1570.5,212.2883 1556.67,216.7163 1540.68,215.4433 " fill="none" id="State6-&gt;State6" style="stroke: #A80036; stroke-width: 1.0;"/><polygon fill="#A80036" points="1535.66,214.8643,1544.1439,219.8666,1540.6272,215.4357,1545.0582,211.9191,1535.66,214.8643" style="stroke: #A80036; stroke-width: 1.0;"/><text fill="#000000" font-family="sans-serif" font-size="13" lengthAdjust="spacingAndGlyphs" textLength="0" x="1770.5" y="199.6514"/><text fill="#000000" font-family="sans-serif" font-size="13" lengthAdjust="spacingAndGlyphs" textLength="384" x="1576.5" y="216.0029">[ "SEND Move TO b" &amp; !"SEND Move TO w" | !"SEND Move TO b"]</text><!--MD5=[9b51608d3ef53b13088934779d96e0b3]
link State6 to State2--><path d="M1474.47,220.1603 C1435.69,240.8613 1366.08,275.0492 1302,291.1563 C1118.93,337.1763 891.127,344.1677 804.586,345.0892 " fill="none" id="State6-&gt;State2" style="stroke: #A80036; stroke-width: 1.0;"/><polygon fill="#A80036" points="799.584,345.1373,808.6224,349.0496,804.5838,345.0887,808.5447,341.05,799.584,345.1373" style="stroke: #A80036; stroke-width: 1.0;"/><text fill="#000000" font-family="sans-serif" font-size="13" lengthAdjust="spacingAndGlyphs" textLength="0" x="1555.5" y="271.6514"/><text fill="#000000" font-family="sans-serif" font-size="13" lengthAdjust="spacingAndGlyphs" textLength="317" x="1395" y="288.0029">[ "SEND Move TO b" &amp; "SEND Move TO w" AccSet[0]]</text><!--MD5=[b558710bd08b66c7134883056f478be5]
link State2 to State2--><path d="M799.659,333.4481 C817.655,330.7406 834.5,334.9766 834.5,346.1563 C834.5,356.2879 820.666,360.7168 804.677,359.4429 " fill="none" id="State2-&gt;State2" style="stroke: #A80036; stroke-width: 1.0;"/><polygon fill="#A80036" points="799.659,358.8645,808.1415,363.8692,804.6261,359.4373,809.058,355.9219,799.659,358.8645" style="stroke: #A80036; stroke-width: 1.0;"/><text fill="#000000" font-family="sans-serif" font-size="13" lengthAdjust="spacingAndGlyphs" textLength="0" x="881.5" y="343.6514"/><text fill="#000000" font-family="sans-serif" font-size="13" lengthAdjust="spacingAndGlyphs" textLength="78" x="840.5" y="360.0029">[ t AccSet[0]]</text><!--MD5=[8faf3fba4e38084e8facba60ebf12d83]
@startuml
 header


 endheader


[*] -> State0 
State0 : 
State0 - -> State0 : \n[ t] 
State0 - -> State1 : \n[ "SEND Move TO w" AccSet[0]] 
State1 : 
State1 - -> State1 : \n[ !"SEND Move TO b" & !"SEND Move TO w" AccSet[0]] 
State1 - -> State2 : \n[ !"SEND Move TO b" & "SEND Move TO w" AccSet[0]] 
State3 : 
State3 - -> State3 : \n[ t] 
State3 - -> State4 : \n[ "SEND Move TO b" AccSet[0]] 
State4 : 
State4 - -> State4 : \n[ !">SEND Move TO b" & !"SEND Move TO w" AccSet[0]] 
State4 - -> State2 : \n[ ">SEND Move TO b" & !"SEND Move TO w" AccSet[0]] 
State5 : 
State5 - -> State5 : \n[ "SEND Move TO b" | !"SEND Move TO b" & "SEND Move TO w"] 
State5 - -> State2 : \n[ !"SEND Move TO b" & !"SEND Move TO w" AccSet[0]] 
State6 : 
State6 - -> State6 : \n[ "SEND Move TO b" & !"SEND Move TO w" | !"SEND Move TO b"] 
State6 - -> State2 : \n[ "SEND Move TO b" & "SEND Move TO w" AccSet[0]] 
State2 : 
State2 - -> State2 : \n[ t AccSet[0]] 
@enduml 

PlantUML version 1.2020.07(Sun Apr 19 13:42:40 CEST 2020)
(GPL source distribution)
Java Runtime: OpenJDK Runtime Environment
JVM: OpenJDK 64-Bit Server VM
Java Version: 12+32
Operating System: Windows 10
Default Encoding: windows-1252
Language: en
Country: US
--></g></svg>