<?xml version="1.0" encoding="UTF-8" standalone="no"?><svg xmlns="http://www.w3.org/2000/svg" xmlns:xlink="http://www.w3.org/1999/xlink" contentScriptType="application/ecmascript" contentStyleType="text/css" height="670px" preserveAspectRatio="none" style="width:1214px;height:670px;" version="1.1" viewBox="0 0 1214 670" width="1214px" zoomAndPan="magnify"><defs><filter height="300%" id="fswyjt3rqxxtn" width="300%" x="-1" y="-1"><feGaussianBlur result="blurOut" stdDeviation="2.0"/><feColorMatrix in="blurOut" result="blurOut2" type="matrix" values="0 0 0 0 0 0 0 0 0 0 0 0 0 0 0 0 0 0 .4 0"/><feOffset dx="4.0" dy="4.0" in="blurOut2" result="blurOut3"/><feBlend in="SourceGraphic" in2="blurOut3" mode="normal"/></filter></defs><g><text fill="#888888" font-family="sans-serif" font-size="10" lengthAdjust="spacingAndGlyphs" textLength="0" x="1202" y="10.3809"/><text fill="#888888" font-family="sans-serif" font-size="10" lengthAdjust="spacingAndGlyphs" textLength="0" x="1202" y="22.959"/><ellipse cx="236.159" cy="490.1563" fill="#000000" filter="url(#fswyjt3rqxxtn)" rx="10" ry="10" style="stroke: none; stroke-width: 1.0;"/><rect fill="#FEFECE" filter="url(#fswyjt3rqxxtn)" height="50" rx="12.5" ry="12.5" style="stroke: #A80036; stroke-width: 1.5;" width="61" x="281.659" y="465.1563"/><line style="stroke: #A80036; stroke-width: 1.5;" x1="281.659" x2="342.659" y1="492.7656" y2="492.7656"/><text fill="#000000" font-family="sans-serif" font-size="14" lengthAdjust="spacingAndGlyphs" textLength="41" x="291.659" y="484.6895">State0</text><rect fill="#FEFECE" filter="url(#fswyjt3rqxxtn)" height="50" rx="12.5" ry="12.5" style="stroke: #A80036; stroke-width: 1.5;" width="61" x="288.659" y="609.1563"/><line style="stroke: #A80036; stroke-width: 1.5;" x1="288.659" x2="349.659" y1="636.7656" y2="636.7656"/><text fill="#000000" font-family="sans-serif" font-size="14" lengthAdjust="spacingAndGlyphs" textLength="41" x="298.659" y="628.6895">State1</text><rect fill="#FEFECE" filter="url(#fswyjt3rqxxtn)" height="50" rx="12.5" ry="12.5" style="stroke: #A80036; stroke-width: 1.5;" width="61" x="127.659" y="177.1563"/><line style="stroke: #A80036; stroke-width: 1.5;" x1="127.659" x2="188.659" y1="204.7656" y2="204.7656"/><text fill="#000000" font-family="sans-serif" font-size="14" lengthAdjust="spacingAndGlyphs" textLength="41" x="137.659" y="196.6895">State2</text><rect fill="#FEFECE" filter="url(#fswyjt3rqxxtn)" height="50" rx="12.5" ry="12.5" style="stroke: #A80036; stroke-width: 1.5;" width="61" x="236.659" y="321.1563"/><line style="stroke: #A80036; stroke-width: 1.5;" x1="236.659" x2="297.659" y1="348.7656" y2="348.7656"/><text fill="#000000" font-family="sans-serif" font-size="14" lengthAdjust="spacingAndGlyphs" textLength="41" x="246.659" y="340.6895">State3</text><rect fill="#FEFECE" filter="url(#fswyjt3rqxxtn)" height="50" rx="12.5" ry="12.5" style="stroke: #A80036; stroke-width: 1.5;" width="61" x="544.659" y="33.1563"/><line style="stroke: #A80036; stroke-width: 1.5;" x1="544.659" x2="605.659" y1="60.7656" y2="60.7656"/><text fill="#000000" font-family="sans-serif" font-size="14" lengthAdjust="spacingAndGlyphs" textLength="41" x="554.659" y="52.6895">State4</text><!--MD5=[6bf52256a5a3d79cde37855053ede169]
link *start to State0--><path d="M246.253,490.1563 C256.264,490.1563 266.276,490.1563 276.287,490.1563 " fill="none" id="*start-&gt;State0" style="stroke: #A80036; stroke-width: 1.0;"/><polygon fill="#A80036" points="281.523,490.1563,272.523,486.1563,276.523,490.1563,272.523,494.1563,281.523,490.1563" style="stroke: #A80036; stroke-width: 1.0;"/><!--MD5=[a9c2f088fcd292d29c9f53cd9a680591]
link State0 to State1--><path d="M281.567,506.8162 C275.523,509.7173 269.186,512.6273 263.159,515.1563 C226.219,530.6603 201.297,512.4523 178.159,545.1563 C169.431,557.4923 169.595,566.7061 178.159,579.1563 C201.637,613.2894 249.867,625.8589 283.338,630.4805 " fill="none" id="State0-&gt;State1" style="stroke: #A80036; stroke-width: 1.0;"/><polygon fill="#A80036" points="288.577,631.1561,280.163,626.037,283.6181,630.5161,279.139,633.9712,288.577,631.1561" style="stroke: #A80036; stroke-width: 1.0;"/><text fill="#000000" font-family="sans-serif" font-size="13" lengthAdjust="spacingAndGlyphs" textLength="0" x="298.159" y="559.6514"/><text fill="#000000" font-family="sans-serif" font-size="13" lengthAdjust="spacingAndGlyphs" textLength="234" x="179.159" y="576.0029">[ !"Move to B" &amp; "Move to W" AccSet[1]]</text><!--MD5=[1c3b58de74f8aea17873256e3d95f441]
link State1 to State0--><path d="M349.728,625.5834 C373.006,618.0358 403.468,603.904 418.159,579.1563 C425.873,566.1623 426.055,558.0403 418.159,545.1563 C402.882,520.2283 372.087,506.3573 347.608,498.9373 " fill="none" id="State1-&gt;State0" style="stroke: #A80036; stroke-width: 1.0;"/><polygon fill="#A80036" points="342.803,497.5373,350.327,503.8925,347.6039,498.9342,352.5622,496.2111,342.803,497.5373" style="stroke: #A80036; stroke-width: 1.0;"/><text fill="#000000" font-family="sans-serif" font-size="13" lengthAdjust="spacingAndGlyphs" textLength="0" x="544.159" y="559.6514"/><text fill="#000000" font-family="sans-serif" font-size="13" lengthAdjust="spacingAndGlyphs" textLength="234" x="425.159" y="576.0029">[ "Move to B" &amp; !"Move to W" AccSet[0]]</text><!--MD5=[9ca92f0828cef308805b33a10f0728b8]
link State2 to State1--><path d="M127.514,206.5303 C96.9995,211.7023 51.6937,224.6982 30.1589,257.1563 C12.3968,283.9273 -18.4705,290.7393 41.1589,435.1563 C73.2816,512.9543 94.6703,531.6613 164.159,579.1563 C200.782,604.188 250.18,618.7445 283.274,626.3094 " fill="none" id="State2-&gt;State1" style="stroke: #A80036; stroke-width: 1.0;"/><polygon fill="#A80036" points="288.441,627.464,280.5295,621.5981,283.5613,626.3739,278.7855,629.4057,288.441,627.464" style="stroke: #A80036; stroke-width: 1.0;"/><text fill="#000000" font-family="sans-serif" font-size="13" lengthAdjust="spacingAndGlyphs" textLength="0" x="161.1589" y="415.6514"/><text fill="#000000" font-family="sans-serif" font-size="13" lengthAdjust="spacingAndGlyphs" textLength="234" x="42.1589" y="432.0029">[ !"Move to B" &amp; "Move to W" AccSet[1]]</text><!--MD5=[428d136baf6462f9e03ffacdcb621855]
link State2 to State3--><path d="M188.919,222.8583 C201.636,232.1203 215.796,244.0173 226.159,257.1563 C240.088,274.8173 250.637,297.9793 257.544,316.1073 " fill="none" id="State2-&gt;State3" style="stroke: #A80036; stroke-width: 1.0;"/><polygon fill="#A80036" points="259.395,321.0783,260.0039,311.2482,257.6507,316.3924,252.5065,314.0392,259.395,321.0783" style="stroke: #A80036; stroke-width: 1.0;"/><text fill="#000000" font-family="sans-serif" font-size="13" lengthAdjust="spacingAndGlyphs" textLength="0" x="336.159" y="271.6514"/><text fill="#000000" font-family="sans-serif" font-size="13" lengthAdjust="spacingAndGlyphs" textLength="172" x="248.159" y="288.0029">[ !"Move to B" &amp; "Move to W"]</text><!--MD5=[e02c7723171335da44198c95537c2494]
link State3 to State2--><path d="M236.315,342.3083 C180.828,336.4783 67.7426,321.1323 44.1589,291.1563 C34.8153,279.2803 36.0782,269.9253 44.1589,257.1563 C61.2472,230.1533 95.8927,216.3893 122.529,209.5453 " fill="none" id="State3-&gt;State2" style="stroke: #A80036; stroke-width: 1.0;"/><polygon fill="#A80036" points="127.403,208.3463,117.708,206.6122,122.5478,209.5408,119.6192,214.3806,127.403,208.3463" style="stroke: #A80036; stroke-width: 1.0;"/><text fill="#000000" font-family="sans-serif" font-size="13" lengthAdjust="spacingAndGlyphs" textLength="0" x="133.1589" y="271.6514"/><text fill="#000000" font-family="sans-serif" font-size="13" lengthAdjust="spacingAndGlyphs" textLength="172" x="45.1589" y="288.0029">[ "Move to B" &amp; !"Move to W"]</text><!--MD5=[9ae992b0530e61ed3e0e3c2862fdeb00]
link State3 to State0--><path d="M274.793,371.2443 C282.55,395.7243 294.576,433.6722 302.879,459.8733 " fill="none" id="State3-&gt;State0" style="stroke: #A80036; stroke-width: 1.0;"/><polygon fill="#A80036" points="304.488,464.9493,305.5809,455.1612,302.9769,460.1831,297.955,457.579,304.488,464.9493" style="stroke: #A80036; stroke-width: 1.0;"/><text fill="#000000" font-family="sans-serif" font-size="13" lengthAdjust="spacingAndGlyphs" textLength="0" x="415.159" y="415.6514"/><text fill="#000000" font-family="sans-serif" font-size="13" lengthAdjust="spacingAndGlyphs" textLength="234" x="296.159" y="432.0029">[ "Move to B" &amp; !"Move to W" AccSet[0]]</text><!--MD5=[b5411f1949a07b35299f65418f2e9d79]
link State4 to State0--><path d="M602.018,83.2693 C624.296,105.2183 654.323,139.8162 667.159,177.1563 C674.383,198.1713 673.211,205.7743 667.159,227.1563 C637.597,331.5993 627.101,371.5283 539.159,435.1563 C481.368,476.9693 395.682,486.8103 347.817,488.8793 " fill="none" id="State4-&gt;State0" style="stroke: #A80036; stroke-width: 1.0;"/><polygon fill="#A80036" points="342.738,489.0753,351.8856,492.7251,347.7343,488.8824,351.577,484.731,342.738,489.0753" style="stroke: #A80036; stroke-width: 1.0;"/><text fill="#000000" font-family="sans-serif" font-size="13" lengthAdjust="spacingAndGlyphs" textLength="0" x="777.159" y="271.6514"/><text fill="#000000" font-family="sans-serif" font-size="13" lengthAdjust="spacingAndGlyphs" textLength="234" x="658.159" y="288.0029">[ "Move to B" &amp; !"Move to W" AccSet[0]]</text><!--MD5=[7065fc78f72d7464487d94bfa1e5711f]
link State4 to State2--><path d="M544.242,59.2002 C486.194,60.3982 358.104,68.3913 262.159,113.1563 C231.616,127.4072 202.851,153.0593 183.349,173.0043 " fill="none" id="State4-&gt;State2" style="stroke: #A80036; stroke-width: 1.0;"/><polygon fill="#A80036" points="179.575,176.9122,188.7053,173.2194,183.0493,173.3165,182.9522,167.6605,179.575,176.9122" style="stroke: #A80036; stroke-width: 1.0;"/><text fill="#000000" font-family="sans-serif" font-size="13" lengthAdjust="spacingAndGlyphs" textLength="0" x="351.159" y="127.6514"/><text fill="#000000" font-family="sans-serif" font-size="13" lengthAdjust="spacingAndGlyphs" textLength="172" x="263.159" y="144.0029">[ "Move to B" &amp; !"Move to W"]</text><!--MD5=[df93601a1d904fa7528a61bbdab7fbc6]
link State4 to State1--><path d="M605.683,64.0003 C694.766,78.9902 948.159,128.0543 948.159,201.1563 C948.159,201.1563 948.159,201.1563 948.159,491.1563 C948.159,613.5834 489.023,630.467 355.294,632.7881 " fill="none" id="State4-&gt;State1" style="stroke: #A80036; stroke-width: 1.0;"/><polygon fill="#A80036" points="349.923,632.8765,358.9881,636.7268,354.9223,632.7936,358.8555,628.7279,349.923,632.8765" style="stroke: #A80036; stroke-width: 1.0;"/><text fill="#000000" font-family="sans-serif" font-size="13" lengthAdjust="spacingAndGlyphs" textLength="0" x="1068.159" y="343.6514"/><text fill="#000000" font-family="sans-serif" font-size="13" lengthAdjust="spacingAndGlyphs" textLength="234" x="949.159" y="360.0029">[ !"Move to B" &amp; "Move to W" AccSet[1]]</text><!--MD5=[767cac475772b7be6b889387a530a290]
link State4 to State3--><path d="M555.964,83.2932 C537.781,106.6482 510.203,143.3763 489.159,177.1563 C458.884,225.7532 472.801,254.0943 429.159,291.1563 C392.975,321.8843 338.676,335.2993 303.08,341.0373 " fill="none" id="State4-&gt;State3" style="stroke: #A80036; stroke-width: 1.0;"/><polygon fill="#A80036" points="297.968,341.8293,307.4744,344.4039,302.909,341.0636,306.2493,336.4983,297.968,341.8293" style="stroke: #A80036; stroke-width: 1.0;"/><text fill="#000000" font-family="sans-serif" font-size="13" lengthAdjust="spacingAndGlyphs" textLength="0" x="578.159" y="199.6514"/><text fill="#000000" font-family="sans-serif" font-size="13" lengthAdjust="spacingAndGlyphs" textLength="172" x="490.159" y="216.0029">[ !"Move to B" &amp; "Move to W"]</text><!--MD5=[80f3bcd724c3acf4770c837c2f518732]
@startuml
 header


 endheader


[*] -> State0 
State0 : 
State0 - -> State1 : \n[ !"Move to B" & "Move to W" AccSet[1]] 
State2 : 
State2 - -> State1 : \n[ !"Move to B" & "Move to W" AccSet[1]] 
State2 - -> State3 : \n[ !"Move to B" & "Move to W"] 
State3 : 
State3 - -> State0 : \n[ "Move to B" & !"Move to W" AccSet[0]] 
State3 - -> State2 : \n[ "Move to B" & !"Move to W"] 
State1 : 
State1 - -> State0 : \n[ "Move to B" & !"Move to W" AccSet[0]] 
State4 : 
State4 - -> State0 : \n[ "Move to B" & !"Move to W" AccSet[0]] 
State4 - -> State2 : \n[ "Move to B" & !"Move to W"] 
State4 - -> State1 : \n[ !"Move to B" & "Move to W" AccSet[1]] 
State4 - -> State3 : \n[ !"Move to B" & "Move to W"] 
@enduml 

PlantUML version 1.2020.07(Sun Apr 19 13:42:40 CEST 2020)
(GPL source distribution)
Java Runtime: OpenJDK Runtime Environment
JVM: OpenJDK 64-Bit Server VM
Java Version: 12+32
Operating System: Windows 10
Default Encoding: windows-1252
Language: en
Country: US
--></g></svg>