<?xml version="1.0" encoding="UTF-8" standalone="no"?><svg xmlns="http://www.w3.org/2000/svg" xmlns:xlink="http://www.w3.org/1999/xlink" contentScriptType="application/ecmascript" contentStyleType="text/css" height="670px" preserveAspectRatio="none" style="width:1032px;height:670px;" version="1.1" viewBox="0 0 1032 670" width="1032px" zoomAndPan="magnify"><defs><filter height="300%" id="f5jba6nzkxzph" width="300%" x="-1" y="-1"><feGaussianBlur result="blurOut" stdDeviation="2.0"/><feColorMatrix in="blurOut" result="blurOut2" type="matrix" values="0 0 0 0 0 0 0 0 0 0 0 0 0 0 0 0 0 0 .4 0"/><feOffset dx="4.0" dy="4.0" in="blurOut2" result="blurOut3"/><feBlend in="SourceGraphic" in2="blurOut3" mode="normal"/></filter></defs><g><text fill="#888888" font-family="sans-serif" font-size="10" lengthAdjust="spacingAndGlyphs" textLength="0" x="1020" y="10.3809"/><text fill="#888888" font-family="sans-serif" font-size="10" lengthAdjust="spacingAndGlyphs" textLength="0" x="1020" y="22.959"/><ellipse cx="196" cy="58.1563" fill="#000000" filter="url(#f5jba6nzkxzph)" rx="10" ry="10" style="stroke: none; stroke-width: 1.0;"/><rect fill="#FEFECE" filter="url(#f5jba6nzkxzph)" height="50" rx="12.5" ry="12.5" style="stroke: #A80036; stroke-width: 1.5;" width="61" x="241.5" y="33.1563"/><line style="stroke: #A80036; stroke-width: 1.5;" x1="241.5" x2="302.5" y1="60.7656" y2="60.7656"/><text fill="#000000" font-family="sans-serif" font-size="14" lengthAdjust="spacingAndGlyphs" textLength="41" x="251.5" y="52.6895">State0</text><rect fill="#FEFECE" filter="url(#f5jba6nzkxzph)" height="50" rx="12.5" ry="12.5" style="stroke: #A80036; stroke-width: 1.5;" width="61" x="406.5" y="177.1563"/><line style="stroke: #A80036; stroke-width: 1.5;" x1="406.5" x2="467.5" y1="204.7656" y2="204.7656"/><text fill="#000000" font-family="sans-serif" font-size="14" lengthAdjust="spacingAndGlyphs" textLength="41" x="416.5" y="196.6895">State1</text><rect fill="#FEFECE" filter="url(#f5jba6nzkxzph)" height="50" rx="12.5" ry="12.5" style="stroke: #A80036; stroke-width: 1.5;" width="61" x="569.5" y="465.1563"/><line style="stroke: #A80036; stroke-width: 1.5;" x1="569.5" x2="630.5" y1="492.7656" y2="492.7656"/><text fill="#000000" font-family="sans-serif" font-size="14" lengthAdjust="spacingAndGlyphs" textLength="41" x="579.5" y="484.6895">State2</text><rect fill="#FEFECE" filter="url(#f5jba6nzkxzph)" height="50" rx="12.5" ry="12.5" style="stroke: #A80036; stroke-width: 1.5;" width="61" x="527.5" y="321.1563"/><line style="stroke: #A80036; stroke-width: 1.5;" x1="527.5" x2="588.5" y1="348.7656" y2="348.7656"/><text fill="#000000" font-family="sans-serif" font-size="14" lengthAdjust="spacingAndGlyphs" textLength="41" x="537.5" y="340.6895">State3</text><rect fill="#FEFECE" filter="url(#f5jba6nzkxzph)" height="50" rx="12.5" ry="12.5" style="stroke: #A80036; stroke-width: 1.5;" width="61" x="293.5" y="609.1563"/><line style="stroke: #A80036; stroke-width: 1.5;" x1="293.5" x2="354.5" y1="636.7656" y2="636.7656"/><text fill="#000000" font-family="sans-serif" font-size="14" lengthAdjust="spacingAndGlyphs" textLength="41" x="303.5" y="628.6895">State4</text><!--MD5=[6bf52256a5a3d79cde37855053ede169]
link *start to State0--><path d="M206.094,58.1563 C216.105,58.1563 226.117,58.1563 236.128,58.1563 " fill="none" id="*start-&gt;State0" style="stroke: #A80036; stroke-width: 1.0;"/><polygon fill="#A80036" points="241.364,58.1563,232.364,54.1563,236.364,58.1563,232.364,62.1563,241.364,58.1563" style="stroke: #A80036; stroke-width: 1.0;"/><!--MD5=[a9c2f088fcd292d29c9f53cd9a680591]
link State0 to State1--><path d="M299.99,83.2442 C329.028,108.2342 374.373,147.2593 404.859,173.4953 " fill="none" id="State0-&gt;State1" style="stroke: #A80036; stroke-width: 1.0;"/><polygon fill="#A80036" points="408.873,176.9493,404.6602,168.0469,405.0831,173.6879,399.442,174.1107,408.873,176.9493" style="stroke: #A80036; stroke-width: 1.0;"/><text fill="#000000" font-family="sans-serif" font-size="13" lengthAdjust="spacingAndGlyphs" textLength="0" x="464" y="127.6514"/><text fill="#000000" font-family="sans-serif" font-size="13" lengthAdjust="spacingAndGlyphs" textLength="172" x="376" y="144.0029">[ !"Move to B" &amp; "Move to W"]</text><!--MD5=[d85cfe1136b46ce6e76b687245b901bd]
link State0 to State2--><path d="M302.566,60.1693 C356.366,62.9702 470.471,73.5092 557,113.1563 C650.454,155.9763 673.713,176.9413 738,257.1563 C791.163,323.4903 860.012,367.9163 808,435.1563 C787.103,462.1713 689.7,478.1663 635.916,485.0853 " fill="none" id="State0-&gt;State2" style="stroke: #A80036; stroke-width: 1.0;"/><polygon fill="#A80036" points="630.852,485.7263,640.2835,488.563,635.8123,485.0976,639.2777,480.6265,630.852,485.7263" style="stroke: #A80036; stroke-width: 1.0;"/><text fill="#000000" font-family="sans-serif" font-size="13" lengthAdjust="spacingAndGlyphs" textLength="0" x="886" y="271.6514"/><text fill="#000000" font-family="sans-serif" font-size="13" lengthAdjust="spacingAndGlyphs" textLength="234" x="767" y="288.0029">[ !"Move to B" &amp; "Move to W" AccSet[1]]</text><!--MD5=[2c5bef3960541e15cb0aebc8835b2a6c]
link State0 to State3--><path d="M251.505,83.1912 C225.125,117.2162 185.952,180.4792 215,227.1563 C280.554,332.4963 448.367,345.5863 522.21,346.0263 " fill="none" id="State0-&gt;State3" style="stroke: #A80036; stroke-width: 1.0;"/><polygon fill="#A80036" points="527.362,346.0373,518.3712,342.0167,522.362,346.0258,518.3529,350.0167,527.362,346.0373" style="stroke: #A80036; stroke-width: 1.0;"/><text fill="#000000" font-family="sans-serif" font-size="13" lengthAdjust="spacingAndGlyphs" textLength="0" x="304" y="199.6514"/><text fill="#000000" font-family="sans-serif" font-size="13" lengthAdjust="spacingAndGlyphs" textLength="172" x="216" y="216.0029">[ "Move to B" &amp; !"Move to W"]</text><!--MD5=[93b975ae79a95d342785a7ad49888945]
link State0 to State4--><path d="M241.486,74.5633 C171.617,109.9562 6,194.5473 6,201.1563 C6,201.1563 6,201.1563 6,491.1563 C6,613.4769 204.597,631.1478 287.903,633.1795 " fill="none" id="State0-&gt;State4" style="stroke: #A80036; stroke-width: 1.0;"/><polygon fill="#A80036" points="293.22,633.2916,284.3066,629.1022,288.2211,633.1858,284.1374,637.1004,293.22,633.2916" style="stroke: #A80036; stroke-width: 1.0;"/><text fill="#000000" font-family="sans-serif" font-size="13" lengthAdjust="spacingAndGlyphs" textLength="0" x="126" y="343.6514"/><text fill="#000000" font-family="sans-serif" font-size="13" lengthAdjust="spacingAndGlyphs" textLength="234" x="7" y="360.0029">[ "Move to B" &amp; !"Move to W" AccSet[0]]</text><!--MD5=[7065fc78f72d7464487d94bfa1e5711f]
link State4 to State2--><path d="M354.877,631.3264 C418.025,626.9068 558.64,613.3755 590,579.1563 C604.244,563.6139 606.099,539.4773 604.749,520.4103 " fill="none" id="State4-&gt;State2" style="stroke: #A80036; stroke-width: 1.0;"/><polygon fill="#A80036" points="604.291,515.1782,601.0904,524.4926,604.7267,520.1592,609.06,523.7955,604.291,515.1782" style="stroke: #A80036; stroke-width: 1.0;"/><text fill="#000000" font-family="sans-serif" font-size="13" lengthAdjust="spacingAndGlyphs" textLength="0" x="724" y="559.6514"/><text fill="#000000" font-family="sans-serif" font-size="13" lengthAdjust="spacingAndGlyphs" textLength="234" x="605" y="576.0029">[ !"Move to B" &amp; "Move to W" AccSet[1]]</text><!--MD5=[63e758279607f83f8081bda14ccbe935]
link State2 to State4--><path d="M569.46,493.6513 C509.119,499.1993 377.709,514.5532 346,545.1563 C330.464,560.1507 325.259,584.3264 323.775,603.5475 " fill="none" id="State2-&gt;State4" style="stroke: #A80036; stroke-width: 1.0;"/><polygon fill="#A80036" points="323.45,608.8257,327.9964,600.0889,323.7577,603.8351,320.0115,599.5965,323.45,608.8257" style="stroke: #A80036; stroke-width: 1.0;"/><text fill="#000000" font-family="sans-serif" font-size="13" lengthAdjust="spacingAndGlyphs" textLength="0" x="466" y="559.6514"/><text fill="#000000" font-family="sans-serif" font-size="13" lengthAdjust="spacingAndGlyphs" textLength="234" x="347" y="576.0029">[ "Move to B" &amp; !"Move to W" AccSet[0]]</text><!--MD5=[5ae46e49596c57ae9dd2c9f13907fd7a]
link State3 to State1--><path d="M558.821,320.8493 C558.259,301.7803 554.685,275.4843 541,257.1563 C524.296,234.7843 495.613,220.8803 472.595,212.7942 " fill="none" id="State3-&gt;State1" style="stroke: #A80036; stroke-width: 1.0;"/><polygon fill="#A80036" points="467.776,211.1553,475.0107,217.838,472.5102,212.7638,477.5844,210.2633,467.776,211.1553" style="stroke: #A80036; stroke-width: 1.0;"/><text fill="#000000" font-family="sans-serif" font-size="13" lengthAdjust="spacingAndGlyphs" textLength="0" x="645" y="271.6514"/><text fill="#000000" font-family="sans-serif" font-size="13" lengthAdjust="spacingAndGlyphs" textLength="172" x="557" y="288.0029">[ !"Move to B" &amp; "Move to W"]</text><!--MD5=[98642968b161d6b5aa442c8e772df306]
link State1 to State3--><path d="M406.136,215.7403 C388.896,224.5623 368.937,238.1903 359,257.1563 C351.987,270.5413 349.82,279.1533 359,291.1563 C378.711,316.9293 470.288,333.2783 522.07,340.6273 " fill="none" id="State1-&gt;State3" style="stroke: #A80036; stroke-width: 1.0;"/><polygon fill="#A80036" points="527.26,341.3523,518.8997,336.146,522.308,340.6607,517.7933,344.0691,527.26,341.3523" style="stroke: #A80036; stroke-width: 1.0;"/><text fill="#000000" font-family="sans-serif" font-size="13" lengthAdjust="spacingAndGlyphs" textLength="0" x="448" y="271.6514"/><text fill="#000000" font-family="sans-serif" font-size="13" lengthAdjust="spacingAndGlyphs" textLength="172" x="360" y="288.0029">[ "Move to B" &amp; !"Move to W"]</text><!--MD5=[e02c7723171335da44198c95537c2494]
link State3 to State2--><path d="M558.033,371.2743 C558.699,389.2973 560.999,414.3133 568,435.1563 C570.928,443.8723 575.402,452.7093 580.085,460.6403 " fill="none" id="State3-&gt;State2" style="stroke: #A80036; stroke-width: 1.0;"/><polygon fill="#A80036" points="582.699,464.9462,581.4487,455.1771,580.1047,460.672,574.6098,459.3279,582.699,464.9462" style="stroke: #A80036; stroke-width: 1.0;"/><text fill="#000000" font-family="sans-serif" font-size="13" lengthAdjust="spacingAndGlyphs" textLength="0" x="688" y="415.6514"/><text fill="#000000" font-family="sans-serif" font-size="13" lengthAdjust="spacingAndGlyphs" textLength="234" x="569" y="432.0029">[ !"Move to B" &amp; "Move to W" AccSet[1]]</text><!--MD5=[cc4ce3ddadaf49ed430c22fb11946685]
link State1 to State4--><path d="M406.457,221.5553 C403.268,223.4543 400.071,225.3492 397,227.1563 C374.004,240.6873 360.498,235.4373 345,257.1563 C268.57,364.2633 299.333,535.3493 315.985,603.6221 " fill="none" id="State1-&gt;State4" style="stroke: #A80036; stroke-width: 1.0;"/><polygon fill="#A80036" points="317.256,608.7457,318.9719,599.0474,316.0524,603.8927,311.2071,600.9732,317.256,608.7457" style="stroke: #A80036; stroke-width: 1.0;"/><text fill="#000000" font-family="sans-serif" font-size="13" lengthAdjust="spacingAndGlyphs" textLength="0" x="418" y="415.6514"/><text fill="#000000" font-family="sans-serif" font-size="13" lengthAdjust="spacingAndGlyphs" textLength="234" x="299" y="432.0029">[ "Move to B" &amp; !"Move to W" AccSet[0]]</text><!--MD5=[951bb62fdf851b8589f0ff61e0544765]
@startuml
 header


 endheader


[*] -> State0 
State0 : 
State0 - -> State1 : \n[ !"Move to B" & "Move to W"] 
State0 - -> State2 : \n[ !"Move to B" & "Move to W" AccSet[1]] 
State0 - -> State3 : \n[ "Move to B" & !"Move to W"] 
State0 - -> State4 : \n[ "Move to B" & !"Move to W" AccSet[0]] 
State4 : 
State4 - -> State2 : \n[ !"Move to B" & "Move to W" AccSet[1]] 
State3 : 
State3 - -> State1 : \n[ !"Move to B" & "Move to W"] 
State3 - -> State2 : \n[ !"Move to B" & "Move to W" AccSet[1]] 
State1 : 
State1 - -> State3 : \n[ "Move to B" & !"Move to W"] 
State1 - -> State4 : \n[ "Move to B" & !"Move to W" AccSet[0]] 
State2 : 
State2 - -> State4 : \n[ "Move to B" & !"Move to W" AccSet[0]] 
@enduml 

PlantUML version 1.2020.07(Sun Apr 19 13:42:40 CEST 2020)
(GPL source distribution)
Java Runtime: OpenJDK Runtime Environment
JVM: OpenJDK 64-Bit Server VM
Java Version: 12+32
Operating System: Windows 10
Default Encoding: windows-1252
Language: en
Country: US
--></g></svg>