<?xml version="1.0" encoding="UTF-8" standalone="no"?><svg xmlns="http://www.w3.org/2000/svg" xmlns:xlink="http://www.w3.org/1999/xlink" contentScriptType="application/ecmascript" contentStyleType="text/css" height="382px" preserveAspectRatio="none" style="width:1989px;height:382px;" version="1.1" viewBox="0 0 1989 382" width="1989px" zoomAndPan="magnify"><defs><filter height="300%" id="fvj63cj2rxjqx" width="300%" x="-1" y="-1"><feGaussianBlur result="blurOut" stdDeviation="2.0"/><feColorMatrix in="blurOut" result="blurOut2" type="matrix" values="0 0 0 0 0 0 0 0 0 0 0 0 0 0 0 0 0 0 .4 0"/><feOffset dx="4.0" dy="4.0" in="blurOut2" result="blurOut3"/><feBlend in="SourceGraphic" in2="blurOut3" mode="normal"/></filter></defs><g><text fill="#888888" font-family="sans-serif" font-size="10" lengthAdjust="spacingAndGlyphs" textLength="0" x="1977" y="10.3809"/><text fill="#888888" font-family="sans-serif" font-size="10" lengthAdjust="spacingAndGlyphs" textLength="0" x="1977" y="22.959"/><ellipse cx="465.5" cy="202.1563" fill="#000000" filter="url(#fvj63cj2rxjqx)" rx="10" ry="10" style="stroke: none; stroke-width: 1.0;"/><rect fill="#FEFECE" filter="url(#fvj63cj2rxjqx)" height="50" rx="12.5" ry="12.5" style="stroke: #A80036; stroke-width: 1.5;" width="61" x="1018" y="177.1563"/><line style="stroke: #A80036; stroke-width: 1.5;" x1="1018" x2="1079" y1="204.7656" y2="204.7656"/><text fill="#000000" font-family="sans-serif" font-size="14" lengthAdjust="spacingAndGlyphs" textLength="41" x="1028" y="196.6895">State0</text><rect fill="#FEFECE" filter="url(#fvj63cj2rxjqx)" height="50" rx="12.5" ry="12.5" style="stroke: #A80036; stroke-width: 1.5;" width="61" x="764" y="321.1563"/><line style="stroke: #A80036; stroke-width: 1.5;" x1="764" x2="825" y1="348.7656" y2="348.7656"/><text fill="#000000" font-family="sans-serif" font-size="14" lengthAdjust="spacingAndGlyphs" textLength="41" x="774" y="340.6895">State1</text><rect fill="#FEFECE" filter="url(#fvj63cj2rxjqx)" height="50" rx="12.5" ry="12.5" style="stroke: #A80036; stroke-width: 1.5;" width="61" x="511" y="177.1563"/><line style="stroke: #A80036; stroke-width: 1.5;" x1="511" x2="572" y1="204.7656" y2="204.7656"/><text fill="#000000" font-family="sans-serif" font-size="14" lengthAdjust="spacingAndGlyphs" textLength="41" x="521" y="196.6895">State2</text><rect fill="#FEFECE" filter="url(#fvj63cj2rxjqx)" height="50" rx="12.5" ry="12.5" style="stroke: #A80036; stroke-width: 1.5;" width="61" x="1018" y="33.1563"/><line style="stroke: #A80036; stroke-width: 1.5;" x1="1018" x2="1079" y1="60.7656" y2="60.7656"/><text fill="#000000" font-family="sans-serif" font-size="14" lengthAdjust="spacingAndGlyphs" textLength="41" x="1028" y="52.6895">State3</text><rect fill="#FEFECE" filter="url(#fvj63cj2rxjqx)" height="50" rx="12.5" ry="12.5" style="stroke: #A80036; stroke-width: 1.5;" width="61" x="6" y="177.1563"/><line style="stroke: #A80036; stroke-width: 1.5;" x1="6" x2="67" y1="204.7656" y2="204.7656"/><text fill="#000000" font-family="sans-serif" font-size="14" lengthAdjust="spacingAndGlyphs" textLength="41" x="16" y="196.6895">State4</text><rect fill="#FEFECE" filter="url(#fvj63cj2rxjqx)" height="50" rx="12.5" ry="12.5" style="stroke: #A80036; stroke-width: 1.5;" width="61" x="6" y="33.1563"/><line style="stroke: #A80036; stroke-width: 1.5;" x1="6" x2="67" y1="60.7656" y2="60.7656"/><text fill="#000000" font-family="sans-serif" font-size="14" lengthAdjust="spacingAndGlyphs" textLength="41" x="16" y="52.6895">State5</text><rect fill="#FEFECE" filter="url(#fvj63cj2rxjqx)" height="50" rx="12.5" ry="12.5" style="stroke: #A80036; stroke-width: 1.5;" width="61" x="1467" y="177.1563"/><line style="stroke: #A80036; stroke-width: 1.5;" x1="1467" x2="1528" y1="204.7656" y2="204.7656"/><text fill="#000000" font-family="sans-serif" font-size="14" lengthAdjust="spacingAndGlyphs" textLength="41" x="1477" y="196.6895">State6</text><!--MD5=[6bf52256a5a3d79cde37855053ede169]
link *start to State0--><path d="M468.272,192.4543 C473.527,176.1133 486.652,143.5723 511,130.1563 C602.867,79.5383 887.07,87.7393 983,130.1563 C1002.778,138.9013 1019.15,156.8943 1030.58,172.7053 " fill="none" id="*start-&gt;State0" style="stroke: #A80036; stroke-width: 1.0;"/><polygon fill="#A80036" points="1033.67,177.0973,1031.7586,167.4356,1030.7912,173.0092,1025.2177,172.0417,1033.67,177.0973" style="stroke: #A80036; stroke-width: 1.0;"/><!--MD5=[9d22519d2236472e696d42759a4dae43]
link State0 to State0--><path d="M1079.16,189.4483 C1097.16,186.7403 1114,190.9763 1114,202.1563 C1114,212.2883 1100.17,216.7163 1084.18,215.4433 " fill="none" id="State0-&gt;State0" style="stroke: #A80036; stroke-width: 1.0;"/><polygon fill="#A80036" points="1079.16,214.8643,1087.6439,219.8666,1084.1272,215.4357,1088.5582,211.9191,1079.16,214.8643" style="stroke: #A80036; stroke-width: 1.0;"/><text fill="#000000" font-family="sans-serif" font-size="13" lengthAdjust="spacingAndGlyphs" textLength="0" x="1283.5" y="199.6514"/><text fill="#000000" font-family="sans-serif" font-size="13" lengthAdjust="spacingAndGlyphs" textLength="323" x="1120" y="216.0029">[ !"SEND Move TO b" &amp; !"SEND Move TO w" AccSet[0]]</text><!--MD5=[a9c2f088fcd292d29c9f53cd9a680591]
link State0 to State1--><path d="M1033.54,227.4503 C1020.12,247.3003 998.703,274.6805 973.5,291.1563 C929.037,320.2229 868.271,334.1947 830.216,340.4924 " fill="none" id="State0-&gt;State1" style="stroke: #A80036; stroke-width: 1.0;"/><polygon fill="#A80036" points="825.231,341.2949,834.7529,343.8116,830.1673,340.4992,833.4798,335.9136,825.231,341.2949" style="stroke: #A80036; stroke-width: 1.0;"/><text fill="#000000" font-family="sans-serif" font-size="13" lengthAdjust="spacingAndGlyphs" textLength="0" x="1174.5" y="271.6514"/><text fill="#000000" font-family="sans-serif" font-size="13" lengthAdjust="spacingAndGlyphs" textLength="320" x="1012.5" y="288.0029">[ "SEND Move TO b" &amp; !"SEND Move TO w" AccSet[0]]</text><!--MD5=[9ca92f0828cef308805b33a10f0728b8]
link State2 to State1--><path d="M564.559,227.1993 C584.277,246.6293 614.198,273.5525 644.5,291.1563 C681.074,312.404 727.437,327.5274 758.867,336.2664 " fill="none" id="State2-&gt;State1" style="stroke: #A80036; stroke-width: 1.0;"/><polygon fill="#A80036" points="763.78,337.6141,756.159,331.3755,758.9582,336.2912,754.0424,339.0904,763.78,337.6141" style="stroke: #A80036; stroke-width: 1.0;"/><text fill="#000000" font-family="sans-serif" font-size="13" lengthAdjust="spacingAndGlyphs" textLength="0" x="809" y="271.6514"/><text fill="#000000" font-family="sans-serif" font-size="13" lengthAdjust="spacingAndGlyphs" textLength="323" x="645.5" y="288.0029">[ !"SEND Move TO b" &amp; !"SEND Move TO w" AccSet[0]]</text><!--MD5=[b558710bd08b66c7134883056f478be5]
link State2 to State2--><path d="M572.159,189.4483 C590.155,186.7403 607,190.9763 607,202.1563 C607,212.2883 593.166,216.7163 577.177,215.4433 " fill="none" id="State2-&gt;State2" style="stroke: #A80036; stroke-width: 1.0;"/><polygon fill="#A80036" points="572.159,214.8643,580.6415,219.869,577.1261,215.4371,581.558,211.9217,572.159,214.8643" style="stroke: #A80036; stroke-width: 1.0;"/><text fill="#000000" font-family="sans-serif" font-size="13" lengthAdjust="spacingAndGlyphs" textLength="0" x="805.5" y="199.6514"/><text fill="#000000" font-family="sans-serif" font-size="13" lengthAdjust="spacingAndGlyphs" textLength="381" x="613" y="216.0029">[ "SEND Move TO b" | !"SEND Move TO b" &amp; "SEND Move TO w"]</text><!--MD5=[9ae992b0530e61ed3e0e3c2862fdeb00]
link State3 to State0--><path d="M1048.5,83.2443 C1048.5,107.7242 1048.5,145.6723 1048.5,171.8733 " fill="none" id="State3-&gt;State0" style="stroke: #A80036; stroke-width: 1.0;"/><polygon fill="#A80036" points="1048.5,176.9493,1052.5,167.9493,1048.5,171.9493,1044.5,167.9493,1048.5,176.9493" style="stroke: #A80036; stroke-width: 1.0;"/><text fill="#000000" font-family="sans-serif" font-size="13" lengthAdjust="spacingAndGlyphs" textLength="0" x="1144.5" y="127.6514"/><text fill="#000000" font-family="sans-serif" font-size="13" lengthAdjust="spacingAndGlyphs" textLength="186" x="1049.5" y="144.0029">[ "SEND Move TO b" AccSet[0]]</text><!--MD5=[8ec7ebc35d95dc19dc51ed7d52bc84fe]
link State3 to State3--><path d="M1079.16,45.4482 C1097.16,42.7403 1114,46.9762 1114,58.1563 C1114,68.2883 1100.17,72.7163 1084.18,71.4432 " fill="none" id="State3-&gt;State3" style="stroke: #A80036; stroke-width: 1.0;"/><polygon fill="#A80036" points="1079.16,70.8643,1087.6439,75.8666,1084.1272,71.4357,1088.5582,67.9191,1079.16,70.8643" style="stroke: #A80036; stroke-width: 1.0;"/><text fill="#000000" font-family="sans-serif" font-size="13" lengthAdjust="spacingAndGlyphs" textLength="0" x="1130" y="55.6514"/><text fill="#000000" font-family="sans-serif" font-size="13" lengthAdjust="spacingAndGlyphs" textLength="16" x="1120" y="72.0029">[ t]</text><!--MD5=[f1cacab9ab704b9dc4cc3a6169f8b1fc]
link State4 to State4--><path d="M67.159,189.4483 C85.1553,186.7403 102,190.9763 102,202.1563 C102,212.2883 88.1656,216.7163 72.1772,215.4433 " fill="none" id="State4-&gt;State4" style="stroke: #A80036; stroke-width: 1.0;"/><polygon fill="#A80036" points="67.159,214.8643,75.6416,219.8688,72.1261,215.437,76.5579,211.9215,67.159,214.8643" style="stroke: #A80036; stroke-width: 1.0;"/><text fill="#000000" font-family="sans-serif" font-size="13" lengthAdjust="spacingAndGlyphs" textLength="0" x="271.5" y="199.6514"/><text fill="#000000" font-family="sans-serif" font-size="13" lengthAdjust="spacingAndGlyphs" textLength="323" x="108" y="216.0029">[ !"SEND Move TO b" &amp; !"SEND Move TO w" AccSet[0]]</text><!--MD5=[df93601a1d904fa7528a61bbdab7fbc6]
link State4 to State1--><path d="M67.3478,217.7613 C111.206,237.8363 194.591,273.4738 269.5,291.1563 C449.872,333.7334 672.955,342.7401 758.659,344.6452 " fill="none" id="State4-&gt;State1" style="stroke: #A80036; stroke-width: 1.0;"/><polygon fill="#A80036" points="763.86,344.7558,754.9466,340.5664,758.8611,344.65,754.7774,348.5646,763.86,344.7558" style="stroke: #A80036; stroke-width: 1.0;"/><text fill="#000000" font-family="sans-serif" font-size="13" lengthAdjust="spacingAndGlyphs" textLength="0" x="432.5" y="271.6514"/><text fill="#000000" font-family="sans-serif" font-size="13" lengthAdjust="spacingAndGlyphs" textLength="320" x="270.5" y="288.0029">[ !"SEND Move TO b" &amp; "SEND Move TO w" AccSet[0]]</text><!--MD5=[a0eabcd1a150d834606d8219524fde1d]
link State5 to State4--><path d="M36.5,83.2443 C36.5,107.7242 36.5,145.6723 36.5,171.8733 " fill="none" id="State5-&gt;State4" style="stroke: #A80036; stroke-width: 1.0;"/><polygon fill="#A80036" points="36.5,176.9493,40.5,167.9493,36.5,171.9493,32.5,167.9493,36.5,176.9493" style="stroke: #A80036; stroke-width: 1.0;"/><text fill="#000000" font-family="sans-serif" font-size="13" lengthAdjust="spacingAndGlyphs" textLength="0" x="133.5" y="127.6514"/><text fill="#000000" font-family="sans-serif" font-size="13" lengthAdjust="spacingAndGlyphs" textLength="188" x="37.5" y="144.0029">[ "SEND Move TO w" AccSet[0]]</text><!--MD5=[a0e946ab347401d0fc5ae1efc248ed82]
link State5 to State5--><path d="M67.159,45.4482 C85.1553,42.7403 102,46.9762 102,58.1563 C102,68.2883 88.1656,72.7163 72.1772,71.4432 " fill="none" id="State5-&gt;State5" style="stroke: #A80036; stroke-width: 1.0;"/><polygon fill="#A80036" points="67.159,70.8643,75.6416,75.8688,72.1261,71.437,76.5579,67.9215,67.159,70.8643" style="stroke: #A80036; stroke-width: 1.0;"/><text fill="#000000" font-family="sans-serif" font-size="13" lengthAdjust="spacingAndGlyphs" textLength="0" x="118" y="55.6514"/><text fill="#000000" font-family="sans-serif" font-size="13" lengthAdjust="spacingAndGlyphs" textLength="16" x="108" y="72.0029">[ t]</text><!--MD5=[dcf63a51bdeb3e817e699e6130214cc7]
link State1 to State1--><path d="M825.159,333.4481 C843.155,330.7406 860,334.9766 860,346.1563 C860,356.2879 846.166,360.7168 830.177,359.4429 " fill="none" id="State1-&gt;State1" style="stroke: #A80036; stroke-width: 1.0;"/><polygon fill="#A80036" points="825.159,358.8645,833.6415,363.8692,830.1261,359.4373,834.558,355.9219,825.159,358.8645" style="stroke: #A80036; stroke-width: 1.0;"/><text fill="#000000" font-family="sans-serif" font-size="13" lengthAdjust="spacingAndGlyphs" textLength="0" x="907" y="343.6514"/><text fill="#000000" font-family="sans-serif" font-size="13" lengthAdjust="spacingAndGlyphs" textLength="78" x="866" y="360.0029">[ t AccSet[0]]</text><!--MD5=[f07ea010ec9727c1e803f77e3175844d]
link State6 to State1--><path d="M1466.73,225.6623 C1436.49,246.4933 1388.2,276.4025 1341.5,291.1563 C1245.53,321.476 936.332,338.493 830.456,343.5442 " fill="none" id="State6-&gt;State1" style="stroke: #A80036; stroke-width: 1.0;"/><polygon fill="#A80036" points="825.27,343.7898,834.4486,347.361,830.2644,343.554,834.0714,339.3699,825.27,343.7898" style="stroke: #A80036; stroke-width: 1.0;"/><text fill="#000000" font-family="sans-serif" font-size="13" lengthAdjust="spacingAndGlyphs" textLength="0" x="1575" y="271.6514"/><text fill="#000000" font-family="sans-serif" font-size="13" lengthAdjust="spacingAndGlyphs" textLength="317" x="1414.5" y="288.0029">[ "SEND Move TO b" &amp; "SEND Move TO w" AccSet[0]]</text><!--MD5=[5cfaac858b2d5ee8454aecfc99f31189]
link State6 to State6--><path d="M1528.16,189.4483 C1546.16,186.7403 1563,190.9763 1563,202.1563 C1563,212.2883 1549.17,216.7163 1533.18,215.4433 " fill="none" id="State6-&gt;State6" style="stroke: #A80036; stroke-width: 1.0;"/><polygon fill="#A80036" points="1528.16,214.8643,1536.6439,219.8666,1533.1272,215.4357,1537.5582,211.9191,1528.16,214.8643" style="stroke: #A80036; stroke-width: 1.0;"/><text fill="#000000" font-family="sans-serif" font-size="13" lengthAdjust="spacingAndGlyphs" textLength="0" x="1763" y="199.6514"/><text fill="#000000" font-family="sans-serif" font-size="13" lengthAdjust="spacingAndGlyphs" textLength="384" x="1569" y="216.0029">[ "SEND Move TO b" &amp; !"SEND Move TO w" | !"SEND Move TO b"]</text><!--MD5=[6b6ebd81ff8268b44d72b90a6434c887]
@startuml
 header


 endheader


[*] -> State0 
State0 : 
State0 - -> State0 : \n[ !"SEND Move TO b" & !"SEND Move TO w" AccSet[0]] 
State0 - -> State1 : \n[ "SEND Move TO b" & !"SEND Move TO w" AccSet[0]] 
State2 : 
State2 - -> State1 : \n[ !"SEND Move TO b" & !"SEND Move TO w" AccSet[0]] 
State2 - -> State2 : \n[ "SEND Move TO b" | !"SEND Move TO b" & "SEND Move TO w"] 
State3 : 
State3 - -> State0 : \n[ "SEND Move TO b" AccSet[0]] 
State3 - -> State3 : \n[ t] 
State4 : 
State4 - -> State4 : \n[ !"SEND Move TO b" & !"SEND Move TO w" AccSet[0]] 
State4 - -> State1 : \n[ !"SEND Move TO b" & "SEND Move TO w" AccSet[0]] 
State5 : 
State5 - -> State4 : \n[ "SEND Move TO w" AccSet[0]] 
State5 - -> State5 : \n[ t] 
State1 : 
State1 - -> State1 : \n[ t AccSet[0]] 
State6 : 
State6 - -> State1 : \n[ "SEND Move TO b" & "SEND Move TO w" AccSet[0]] 
State6 - -> State6 : \n[ "SEND Move TO b" & !"SEND Move TO w" | !"SEND Move TO b"] 
@enduml 

PlantUML version 1.2020.07(Sun Apr 19 13:42:40 CEST 2020)
(GPL source distribution)
Java Runtime: OpenJDK Runtime Environment
JVM: OpenJDK 64-Bit Server VM
Java Version: 12+32
Operating System: Windows 10
Default Encoding: windows-1252
Language: en
Country: US
--></g></svg>