<?xml version="1.0" encoding="UTF-8" standalone="no"?><svg xmlns="http://www.w3.org/2000/svg" xmlns:xlink="http://www.w3.org/1999/xlink" contentScriptType="application/ecmascript" contentStyleType="text/css" height="670px" preserveAspectRatio="none" style="width:537px;height:670px;" version="1.1" viewBox="0 0 537 670" width="537px" zoomAndPan="magnify"><defs><filter height="300%" id="f1o4j3ukikmxf" width="300%" x="-1" y="-1"><feGaussianBlur result="blurOut" stdDeviation="2.0"/><feColorMatrix in="blurOut" result="blurOut2" type="matrix" values="0 0 0 0 0 0 0 0 0 0 0 0 0 0 0 0 0 0 .4 0"/><feOffset dx="4.0" dy="4.0" in="blurOut2" result="blurOut3"/><feBlend in="SourceGraphic" in2="blurOut3" mode="normal"/></filter></defs><g><text fill="#888888" font-family="sans-serif" font-size="10" lengthAdjust="spacingAndGlyphs" textLength="0" x="525" y="10.3809"/><text fill="#888888" font-family="sans-serif" font-size="10" lengthAdjust="spacingAndGlyphs" textLength="0" x="525" y="22.959"/><ellipse cx="92" cy="58.1563" fill="#000000" filter="url(#f1o4j3ukikmxf)" rx="10" ry="10" style="stroke: none; stroke-width: 1.0;"/><rect fill="#FEFECE" filter="url(#f1o4j3ukikmxf)" height="50" rx="12.5" ry="12.5" style="stroke: #A80036; stroke-width: 1.5;" width="61" x="137.5" y="33.1563"/><line style="stroke: #A80036; stroke-width: 1.5;" x1="137.5" x2="198.5" y1="60.7656" y2="60.7656"/><text fill="#000000" font-family="sans-serif" font-size="14" lengthAdjust="spacingAndGlyphs" textLength="41" x="147.5" y="52.6895">State0</text><rect fill="#FEFECE" filter="url(#f1o4j3ukikmxf)" height="50" rx="12.5" ry="12.5" style="stroke: #A80036; stroke-width: 1.5;" width="61" x="208.5" y="177.1563"/><line style="stroke: #A80036; stroke-width: 1.5;" x1="208.5" x2="269.5" y1="204.7656" y2="204.7656"/><text fill="#000000" font-family="sans-serif" font-size="14" lengthAdjust="spacingAndGlyphs" textLength="41" x="218.5" y="196.6895">State1</text><rect fill="#FEFECE" filter="url(#f1o4j3ukikmxf)" height="50" rx="12.5" ry="12.5" style="stroke: #A80036; stroke-width: 1.5;" width="61" x="317.5" y="465.1563"/><line style="stroke: #A80036; stroke-width: 1.5;" x1="317.5" x2="378.5" y1="492.7656" y2="492.7656"/><text fill="#000000" font-family="sans-serif" font-size="14" lengthAdjust="spacingAndGlyphs" textLength="41" x="327.5" y="484.6895">State2</text><rect fill="#FEFECE" filter="url(#f1o4j3ukikmxf)" height="50" rx="12.5" ry="12.5" style="stroke: #A80036; stroke-width: 1.5;" width="61" x="284.5" y="321.1563"/><line style="stroke: #A80036; stroke-width: 1.5;" x1="284.5" x2="345.5" y1="348.7656" y2="348.7656"/><text fill="#000000" font-family="sans-serif" font-size="14" lengthAdjust="spacingAndGlyphs" textLength="41" x="294.5" y="340.6895">State3</text><rect fill="#FEFECE" filter="url(#f1o4j3ukikmxf)" height="50" rx="12.5" ry="12.5" style="stroke: #A80036; stroke-width: 1.5;" width="61" x="167.5" y="609.1563"/><line style="stroke: #A80036; stroke-width: 1.5;" x1="167.5" x2="228.5" y1="636.7656" y2="636.7656"/><text fill="#000000" font-family="sans-serif" font-size="14" lengthAdjust="spacingAndGlyphs" textLength="41" x="177.5" y="628.6895">State4</text><!--MD5=[6bf52256a5a3d79cde37855053ede169]
link *start to State0--><path d="M102.0938,58.1563 C112.105,58.1563 122.117,58.1563 132.128,58.1563 " fill="none" id="*start-&gt;State0" style="stroke: #A80036; stroke-width: 1.0;"/><polygon fill="#A80036" points="137.364,58.1563,128.364,54.1563,132.364,58.1563,128.364,62.1563,137.364,58.1563" style="stroke: #A80036; stroke-width: 1.0;"/><!--MD5=[a9c2f088fcd292d29c9f53cd9a680591]
link State0 to State1--><path d="M180.044,83.2442 C192.335,107.8262 211.416,145.9883 224.522,172.2002 " fill="none" id="State0-&gt;State1" style="stroke: #A80036; stroke-width: 1.0;"/><polygon fill="#A80036" points="226.897,176.9493,226.451,167.1105,224.6615,172.4768,219.2952,170.6873,226.897,176.9493" style="stroke: #A80036; stroke-width: 1.0;"/><text fill="#000000" font-family="sans-serif" font-size="13" lengthAdjust="spacingAndGlyphs" textLength="0" x="237" y="127.6514"/><text fill="#000000" font-family="sans-serif" font-size="13" lengthAdjust="spacingAndGlyphs" textLength="46" x="212" y="144.0029">[ !0 &amp; 1]</text><!--MD5=[d85cfe1136b46ce6e76b687245b901bd]
link State0 to State2--><path d="M198.874,70.8323 C219.929,79.9473 247.434,94.2423 267,113.1563 C372.748,215.3793 393.867,258.5853 430,401.1563 C433.712,415.8043 437.168,421.8533 430,435.1563 C420.096,453.5363 400.898,466.6903 383.567,475.4113 " fill="none" id="State0-&gt;State2" style="stroke: #A80036; stroke-width: 1.0;"/><polygon fill="#A80036" points="378.737,477.7533,388.5803,477.423,383.2354,475.5705,385.0879,470.2256,378.737,477.7533" style="stroke: #A80036; stroke-width: 1.0;"/><text fill="#000000" font-family="sans-serif" font-size="13" lengthAdjust="spacingAndGlyphs" textLength="0" x="454" y="271.6514"/><text fill="#000000" font-family="sans-serif" font-size="13" lengthAdjust="spacingAndGlyphs" textLength="108" x="398" y="288.0029">[ !0 &amp; 1 AccSet[1]]</text><!--MD5=[2c5bef3960541e15cb0aebc8835b2a6c]
link State0 to State3--><path d="M156.584,83.2832 C142.396,116.8773 122.418,179.0322 143,227.1563 C167.475,284.3833 236.617,317.9573 279.416,333.8433 " fill="none" id="State0-&gt;State3" style="stroke: #A80036; stroke-width: 1.0;"/><polygon fill="#A80036" points="284.243,335.6013,277.1555,328.7626,279.545,333.89,274.4175,336.2795,284.243,335.6013" style="stroke: #A80036; stroke-width: 1.0;"/><text fill="#000000" font-family="sans-serif" font-size="13" lengthAdjust="spacingAndGlyphs" textLength="0" x="169" y="199.6514"/><text fill="#000000" font-family="sans-serif" font-size="13" lengthAdjust="spacingAndGlyphs" textLength="46" x="144" y="216.0029">[ 0 &amp; !1]</text><!--MD5=[93b975ae79a95d342785a7ad49888945]
link State0 to State4--><path d="M137.148,78.1253 C90.1449,108.1273 6,166.6543 6,201.1563 C6,201.1563 6,201.1563 6,491.1563 C6,568.0236 106.707,608.0322 162.25,624.2527 " fill="none" id="State0-&gt;State4" style="stroke: #A80036; stroke-width: 1.0;"/><polygon fill="#A80036" points="167.152,625.6568,159.6018,619.3327,162.3454,624.2796,157.3984,627.0232,167.152,625.6568" style="stroke: #A80036; stroke-width: 1.0;"/><text fill="#000000" font-family="sans-serif" font-size="13" lengthAdjust="spacingAndGlyphs" textLength="0" x="63" y="343.6514"/><text fill="#000000" font-family="sans-serif" font-size="13" lengthAdjust="spacingAndGlyphs" textLength="108" x="7" y="360.0029">[ 0 &amp; !1 AccSet[0]]</text><!--MD5=[7065fc78f72d7464487d94bfa1e5711f]
link State4 to State2--><path d="M228.531,630.4304 C261.155,625.7695 311.717,613.1684 338,579.1563 C350.719,562.697 352.788,539.0593 351.911,520.4263 " fill="none" id="State4-&gt;State2" style="stroke: #A80036; stroke-width: 1.0;"/><polygon fill="#A80036" points="351.592,515.3133,348.1604,524.5449,351.9034,520.3035,356.1448,524.0466,351.592,515.3133" style="stroke: #A80036; stroke-width: 1.0;"/><text fill="#000000" font-family="sans-serif" font-size="13" lengthAdjust="spacingAndGlyphs" textLength="0" x="407" y="559.6514"/><text fill="#000000" font-family="sans-serif" font-size="13" lengthAdjust="spacingAndGlyphs" textLength="108" x="351" y="576.0029">[ !0 &amp; 1 AccSet[1]]</text><!--MD5=[63e758279607f83f8081bda14ccbe935]
link State2 to State4--><path d="M317.264,496.0543 C288.01,502.3402 244.869,516.1223 220,545.1563 C206.141,561.3364 200.786,584.9901 198.817,603.7004 " fill="none" id="State2-&gt;State4" style="stroke: #A80036; stroke-width: 1.0;"/><polygon fill="#A80036" points="198.347,608.8362,203.15,600.2378,198.8024,603.8569,195.1833,599.5093,198.347,608.8362" style="stroke: #A80036; stroke-width: 1.0;"/><text fill="#000000" font-family="sans-serif" font-size="13" lengthAdjust="spacingAndGlyphs" textLength="0" x="277" y="559.6514"/><text fill="#000000" font-family="sans-serif" font-size="13" lengthAdjust="spacingAndGlyphs" textLength="108" x="221" y="576.0029">[ 0 &amp; !1 AccSet[0]]</text><!--MD5=[5ae46e49596c57ae9dd2c9f13907fd7a]
link State3 to State1--><path d="M307.84,321.1503 C301.92,302.9613 292.614,277.6833 281,257.1563 C276.065,248.4343 269.821,239.5953 263.667,231.6653 " fill="none" id="State3-&gt;State1" style="stroke: #A80036; stroke-width: 1.0;"/><polygon fill="#A80036" points="260.266,227.3583,262.7039,236.9006,263.3645,231.2824,268.9827,231.943,260.266,227.3583" style="stroke: #A80036; stroke-width: 1.0;"/><text fill="#000000" font-family="sans-serif" font-size="13" lengthAdjust="spacingAndGlyphs" textLength="0" x="322" y="271.6514"/><text fill="#000000" font-family="sans-serif" font-size="13" lengthAdjust="spacingAndGlyphs" textLength="46" x="297" y="288.0029">[ !0 &amp; 1]</text><!--MD5=[98642968b161d6b5aa442c8e772df306]
link State1 to State3--><path d="M227.153,227.4333 C219.907,245.9973 213.948,271.6363 225,291.1563 C236.719,311.8543 259.887,325.4843 279.781,333.8733 " fill="none" id="State1-&gt;State3" style="stroke: #A80036; stroke-width: 1.0;"/><polygon fill="#A80036" points="284.495,335.7903,277.6659,328.6935,279.8636,333.906,274.6511,336.1037,284.495,335.7903" style="stroke: #A80036; stroke-width: 1.0;"/><text fill="#000000" font-family="sans-serif" font-size="13" lengthAdjust="spacingAndGlyphs" textLength="0" x="251" y="271.6514"/><text fill="#000000" font-family="sans-serif" font-size="13" lengthAdjust="spacingAndGlyphs" textLength="46" x="226" y="288.0029">[ 0 &amp; !1]</text><!--MD5=[e02c7723171335da44198c95537c2494]
link State3 to State2--><path d="M311.967,371.1603 C310.484,389.1253 310.106,414.1173 316,435.1563 C318.481,444.0103 322.802,452.8932 327.482,460.8253 " fill="none" id="State3-&gt;State2" style="stroke: #A80036; stroke-width: 1.0;"/><polygon fill="#A80036" points="330.109,465.1283,328.8338,455.3623,327.5038,460.8606,322.0056,459.5306,330.109,465.1283" style="stroke: #A80036; stroke-width: 1.0;"/><text fill="#000000" font-family="sans-serif" font-size="13" lengthAdjust="spacingAndGlyphs" textLength="0" x="373" y="415.6514"/><text fill="#000000" font-family="sans-serif" font-size="13" lengthAdjust="spacingAndGlyphs" textLength="108" x="317" y="432.0029">[ !0 &amp; 1 AccSet[1]]</text><!--MD5=[cc4ce3ddadaf49ed430c22fb11946685]
link State1 to State4--><path d="M223.532,227.2983 C218.424,236.3372 213.229,246.9053 210,257.1563 C170.968,381.0623 185.346,539.4153 193.7,603.8832 " fill="none" id="State1-&gt;State4" style="stroke: #A80036; stroke-width: 1.0;"/><polygon fill="#A80036" points="194.389,609.0948,197.1751,599.6482,193.7337,604.1379,189.244,600.6966,194.389,609.0948" style="stroke: #A80036; stroke-width: 1.0;"/><text fill="#000000" font-family="sans-serif" font-size="13" lengthAdjust="spacingAndGlyphs" textLength="0" x="242" y="415.6514"/><text fill="#000000" font-family="sans-serif" font-size="13" lengthAdjust="spacingAndGlyphs" textLength="108" x="186" y="432.0029">[ 0 &amp; !1 AccSet[0]]</text><!--MD5=[a86fe87f2f2b03240fcb5bdfa4cb7a0c]
@startuml
 header


 endheader


[*] -> State0 
State0 : 
State0 - -> State1 : \n[ !0 & 1] 
State0 - -> State2 : \n[ !0 & 1 AccSet[1]] 
State0 - -> State3 : \n[ 0 & !1] 
State0 - -> State4 : \n[ 0 & !1 AccSet[0]] 
State4 : 
State4 - -> State2 : \n[ !0 & 1 AccSet[1]] 
State3 : 
State3 - -> State1 : \n[ !0 & 1] 
State3 - -> State2 : \n[ !0 & 1 AccSet[1]] 
State1 : 
State1 - -> State3 : \n[ 0 & !1] 
State1 - -> State4 : \n[ 0 & !1 AccSet[0]] 
State2 : 
State2 - -> State4 : \n[ 0 & !1 AccSet[0]] 
@enduml 

PlantUML version 1.2020.07(Sun Apr 19 13:42:40 CEST 2020)
(GPL source distribution)
Java Runtime: OpenJDK Runtime Environment
JVM: OpenJDK 64-Bit Server VM
Java Version: 12+32
Operating System: Windows 10
Default Encoding: windows-1252
Language: en
Country: US
--></g></svg>