<?xml version="1.0" encoding="UTF-8" standalone="no"?><svg xmlns="http://www.w3.org/2000/svg" xmlns:xlink="http://www.w3.org/1999/xlink" contentScriptType="application/ecmascript" contentStyleType="text/css" height="958px" preserveAspectRatio="none" style="width:238px;height:958px;" version="1.1" viewBox="0 0 238 958" width="238px" zoomAndPan="magnify"><defs><filter height="300%" id="f1q5svjrfkvmuv" width="300%" x="-1" y="-1"><feGaussianBlur result="blurOut" stdDeviation="2.0"/><feColorMatrix in="blurOut" result="blurOut2" type="matrix" values="0 0 0 0 0 0 0 0 0 0 0 0 0 0 0 0 0 0 .4 0"/><feOffset dx="4.0" dy="4.0" in="blurOut2" result="blurOut3"/><feBlend in="SourceGraphic" in2="blurOut3" mode="normal"/></filter></defs><g><text fill="#888888" font-family="sans-serif" font-size="10" lengthAdjust="spacingAndGlyphs" textLength="0" x="226" y="10.3809"/><text fill="#888888" font-family="sans-serif" font-size="10" lengthAdjust="spacingAndGlyphs" textLength="0" x="226" y="22.959"/><ellipse cx="16" cy="58.1563" fill="#000000" filter="url(#f1q5svjrfkvmuv)" rx="10" ry="10" style="stroke: none; stroke-width: 1.0;"/><rect fill="#FEFECE" filter="url(#f1q5svjrfkvmuv)" height="50" rx="12.5" ry="12.5" style="stroke: #A80036; stroke-width: 1.5;" width="61" x="61.5" y="33.1563"/><line style="stroke: #A80036; stroke-width: 1.5;" x1="61.5" x2="122.5" y1="60.7656" y2="60.7656"/><text fill="#000000" font-family="sans-serif" font-size="14" lengthAdjust="spacingAndGlyphs" textLength="41" x="71.5" y="52.6895">State0</text><rect fill="#FEFECE" filter="url(#f1q5svjrfkvmuv)" height="50" rx="12.5" ry="12.5" style="stroke: #A80036; stroke-width: 1.5;" width="61" x="61.5" y="177.1563"/><line style="stroke: #A80036; stroke-width: 1.5;" x1="61.5" x2="122.5" y1="204.7656" y2="204.7656"/><text fill="#000000" font-family="sans-serif" font-size="14" lengthAdjust="spacingAndGlyphs" textLength="41" x="71.5" y="196.6895">State1</text><rect fill="#FEFECE" filter="url(#f1q5svjrfkvmuv)" height="50" rx="12.5" ry="12.5" style="stroke: #A80036; stroke-width: 1.5;" width="61" x="8.5" y="321.1563"/><line style="stroke: #A80036; stroke-width: 1.5;" x1="8.5" x2="69.5" y1="348.7656" y2="348.7656"/><text fill="#000000" font-family="sans-serif" font-size="14" lengthAdjust="spacingAndGlyphs" textLength="41" x="18.5" y="340.6895">State2</text><rect fill="#FEFECE" filter="url(#f1q5svjrfkvmuv)" height="50" rx="12.5" ry="12.5" style="stroke: #A80036; stroke-width: 1.5;" width="61" x="9.5" y="465.1563"/><line style="stroke: #A80036; stroke-width: 1.5;" x1="9.5" x2="70.5" y1="492.7656" y2="492.7656"/><text fill="#000000" font-family="sans-serif" font-size="14" lengthAdjust="spacingAndGlyphs" textLength="41" x="19.5" y="484.6895">State3</text><rect fill="#FEFECE" filter="url(#f1q5svjrfkvmuv)" height="50" rx="12.5" ry="12.5" style="stroke: #A80036; stroke-width: 1.5;" width="61" x="62.5" y="609.1563"/><line style="stroke: #A80036; stroke-width: 1.5;" x1="62.5" x2="123.5" y1="636.7656" y2="636.7656"/><text fill="#000000" font-family="sans-serif" font-size="14" lengthAdjust="spacingAndGlyphs" textLength="41" x="72.5" y="628.6895">State4</text><rect fill="#FEFECE" filter="url(#f1q5svjrfkvmuv)" height="50" rx="12.5" ry="12.5" style="stroke: #A80036; stroke-width: 1.5;" width="61" x="62.5" y="753.1563"/><line style="stroke: #A80036; stroke-width: 1.5;" x1="62.5" x2="123.5" y1="780.7656" y2="780.7656"/><text fill="#000000" font-family="sans-serif" font-size="14" lengthAdjust="spacingAndGlyphs" textLength="41" x="72.5" y="772.6895">State5</text><rect fill="#FEFECE" filter="url(#f1q5svjrfkvmuv)" height="50" rx="12.5" ry="12.5" style="stroke: #A80036; stroke-width: 1.5;" width="61" x="62.5" y="897.1563"/><line style="stroke: #A80036; stroke-width: 1.5;" x1="62.5" x2="123.5" y1="924.7656" y2="924.7656"/><text fill="#000000" font-family="sans-serif" font-size="14" lengthAdjust="spacingAndGlyphs" textLength="41" x="72.5" y="916.6895">State6</text><!--MD5=[6bf52256a5a3d79cde37855053ede169]
link *start to State0--><path d="M26.0938,58.1563 C36.1053,58.1563 46.1169,58.1563 56.1285,58.1563 " fill="none" id="*start-&gt;State0" style="stroke: #A80036; stroke-width: 1.0;"/><polygon fill="#A80036" points="61.3639,58.1563,52.3639,54.1563,56.3639,58.1563,52.3639,62.1563,61.3639,58.1563" style="stroke: #A80036; stroke-width: 1.0;"/><!--MD5=[a9c2f088fcd292d29c9f53cd9a680591]
link State0 to State1--><path d="M92,83.2442 C92,107.7242 92,145.6722 92,171.8732 " fill="none" id="State0-&gt;State1" style="stroke: #A80036; stroke-width: 1.0;"/><polygon fill="#A80036" points="92,176.9493,96,167.9493,92,171.9493,88,167.9493,92,176.9493" style="stroke: #A80036; stroke-width: 1.0;"/><text fill="#000000" font-family="sans-serif" font-size="13" lengthAdjust="spacingAndGlyphs" textLength="63" x="93" y="127.6514">[alice,bob]!</text><text fill="#000000" font-family="sans-serif" font-size="13" lengthAdjust="spacingAndGlyphs" textLength="34" x="107.5" y="144.0029">String</text><!--MD5=[dc702cd49c4e27e6abb2620dc4bb28d8]
link State1 to State2--><path d="M65.8538,227.2693 C58.1211,235.9072 50.5219,246.2323 46,257.1563 C38.3503,275.6363 36.6807,298.1432 36.8821,315.7693 " fill="none" id="State1-&gt;State2" style="stroke: #A80036; stroke-width: 1.0;"/><polygon fill="#A80036" points="37.0002,321.0723,40.7986,311.9853,36.8888,316.0735,32.8006,312.1636,37.0002,321.0723" style="stroke: #A80036; stroke-width: 1.0;"/><text fill="#000000" font-family="sans-serif" font-size="13" lengthAdjust="spacingAndGlyphs" textLength="67" x="47" y="271.6514">[alice,bob]?</text><text fill="#000000" font-family="sans-serif" font-size="13" lengthAdjust="spacingAndGlyphs" textLength="31" x="65" y="288.0029">nope!</text><!--MD5=[428d136baf6462f9e03ffacdcb621855]
link State2 to State3--><path d="M35.7399,371.3013 C34.6344,380.6123 33.5425,391.3613 33,401.1563 C32.1643,416.2442 32.0267,420.0762 33,435.1563 C33.5145,443.1283 34.452,451.7203 35.4773,459.6553 " fill="none" id="State2-&gt;State3" style="stroke: #A80036; stroke-width: 1.0;"/><polygon fill="#A80036" points="36.1969,465.0283,38.9684,455.5774,35.534,460.0724,31.039,456.638,36.1969,465.0283" style="stroke: #A80036; stroke-width: 1.0;"/><text fill="#000000" font-family="sans-serif" font-size="13" lengthAdjust="spacingAndGlyphs" textLength="63" x="34" y="415.6514">[bob,alice]!</text><text fill="#000000" font-family="sans-serif" font-size="13" lengthAdjust="spacingAndGlyphs" textLength="34" x="48.5" y="432.0029">String</text><!--MD5=[ba4168f70349cc0467fd74c2e3858fc7]
link State3 to State4--><path d="M37.6014,515.2483 C36.7278,533.4823 37.5728,558.7793 46,579.1563 C49.8073,588.3623 55.8381,597.0973 62.3269,604.7543 " fill="none" id="State3-&gt;State4" style="stroke: #A80036; stroke-width: 1.0;"/><polygon fill="#A80036" points="65.9676,608.8933,63.0261,599.4939,62.665,605.1392,57.0197,604.7781,65.9676,608.8933" style="stroke: #A80036; stroke-width: 1.0;"/><text fill="#000000" font-family="sans-serif" font-size="13" lengthAdjust="spacingAndGlyphs" textLength="67" x="47" y="559.6514">[bob,alice]?</text><text fill="#000000" font-family="sans-serif" font-size="13" lengthAdjust="spacingAndGlyphs" textLength="31" x="65" y="576.0029">nope!</text><!--MD5=[df93601a1d904fa7528a61bbdab7fbc6]
link State4 to State1--><path d="M107.481,609.0083 C112.122,599.9683 116.662,589.4023 119,579.1563 C150.84,439.6323 151.88,396.4393 119,257.1563 C116.986,248.6242 113.406,239.9022 109.498,232.0263 " fill="none" id="State4-&gt;State1" style="stroke: #A80036; stroke-width: 1.0;"/><polygon fill="#A80036" points="107.033,227.2413,107.5971,237.0739,109.3221,231.6865,114.7095,233.4114,107.033,227.2413" style="stroke: #A80036; stroke-width: 1.0;"/><text fill="#000000" font-family="sans-serif" font-size="13" lengthAdjust="spacingAndGlyphs" textLength="63" x="144" y="415.6514">[alice,bob]!</text><text fill="#000000" font-family="sans-serif" font-size="13" lengthAdjust="spacingAndGlyphs" textLength="34" x="158.5" y="432.0029">String</text><!--MD5=[196cf0de60bc43d3e8600cccfcd43773]
link State4 to State5--><path d="M93,659.2443 C93,683.7243 93,721.6723 93,747.8733 " fill="none" id="State4-&gt;State5" style="stroke: #A80036; stroke-width: 1.0;"/><polygon fill="#A80036" points="93,752.9493,97,743.9493,93,747.9493,89,743.9493,93,752.9493" style="stroke: #A80036; stroke-width: 1.0;"/><text fill="#000000" font-family="sans-serif" font-size="13" lengthAdjust="spacingAndGlyphs" textLength="63" x="94" y="703.6514">[alice,bob]!</text><text fill="#000000" font-family="sans-serif" font-size="13" lengthAdjust="spacingAndGlyphs" textLength="34" x="108.5" y="720.0029">String</text><!--MD5=[e800215b3c28a9235acdb96089e262d2]
link State5 to State6--><path d="M93,803.2443 C93,827.7243 93,865.6721 93,891.8736 " fill="none" id="State5-&gt;State6" style="stroke: #A80036; stroke-width: 1.0;"/><polygon fill="#A80036" points="93,896.9498,97,887.9498,93,891.9498,89,887.9498,93,896.9498" style="stroke: #A80036; stroke-width: 1.0;"/><text fill="#000000" font-family="sans-serif" font-size="13" lengthAdjust="spacingAndGlyphs" textLength="67" x="94" y="847.6514">[alice,bob]?</text><text fill="#000000" font-family="sans-serif" font-size="13" lengthAdjust="spacingAndGlyphs" textLength="31" x="112" y="864.0029">nope!</text><!--MD5=[e077f46df7709ad9ffdeb4bdc0e382d8]
@startuml
 header


 endheader


[*] -> State0 
State0- ->State1:[alice,bob]!\nString
State1- ->State2:[alice,bob]?\nnope!
State2- ->State3:[bob,alice]!\nString
State3- ->State4:[bob,alice]?\nnope!
State4- ->State1:[alice,bob]!\nString
State4- ->State5:[alice,bob]!\nString
State5- ->State6:[alice,bob]?\nnope!
@enduml 

PlantUML version 1.2020.07(Sun Apr 19 13:42:40 CEST 2020)
(GPL source distribution)
Java Runtime: OpenJDK Runtime Environment
JVM: OpenJDK 64-Bit Server VM
Java Version: 12+32
Operating System: Windows 10
Default Encoding: windows-1252
Language: en
Country: US
--></g></svg>