<?xml version="1.0" encoding="UTF-8" standalone="no"?><svg xmlns="http://www.w3.org/2000/svg" xmlns:xlink="http://www.w3.org/1999/xlink" contentScriptType="application/ecmascript" contentStyleType="text/css" height="958px" preserveAspectRatio="none" style="width:248px;height:958px;" version="1.1" viewBox="0 0 248 958" width="248px" zoomAndPan="magnify"><defs><filter height="300%" id="f1acdtjn2q7h2s" width="300%" x="-1" y="-1"><feGaussianBlur result="blurOut" stdDeviation="2.0"/><feColorMatrix in="blurOut" result="blurOut2" type="matrix" values="0 0 0 0 0 0 0 0 0 0 0 0 0 0 0 0 0 0 .4 0"/><feOffset dx="4.0" dy="4.0" in="blurOut2" result="blurOut3"/><feBlend in="SourceGraphic" in2="blurOut3" mode="normal"/></filter></defs><g><text fill="#888888" font-family="sans-serif" font-size="10" lengthAdjust="spacingAndGlyphs" textLength="0" x="236" y="10.3809"/><text fill="#888888" font-family="sans-serif" font-size="10" lengthAdjust="spacingAndGlyphs" textLength="0" x="236" y="22.959"/><ellipse cx="16" cy="58.1563" fill="#000000" filter="url(#f1acdtjn2q7h2s)" rx="10" ry="10" style="stroke: none; stroke-width: 1.0;"/><rect fill="#FEFECE" filter="url(#f1acdtjn2q7h2s)" height="50" rx="12.5" ry="12.5" style="stroke: #A80036; stroke-width: 1.5;" width="61" x="61.5" y="33.1563"/><line style="stroke: #A80036; stroke-width: 1.5;" x1="61.5" x2="122.5" y1="60.7656" y2="60.7656"/><text fill="#000000" font-family="sans-serif" font-size="14" lengthAdjust="spacingAndGlyphs" textLength="41" x="71.5" y="52.6895">State0</text><rect fill="#FEFECE" filter="url(#f1acdtjn2q7h2s)" height="50" rx="12.5" ry="12.5" style="stroke: #A80036; stroke-width: 1.5;" width="61" x="61.5" y="177.1563"/><line style="stroke: #A80036; stroke-width: 1.5;" x1="61.5" x2="122.5" y1="204.7656" y2="204.7656"/><text fill="#000000" font-family="sans-serif" font-size="14" lengthAdjust="spacingAndGlyphs" textLength="41" x="71.5" y="196.6895">State1</text><rect fill="#FEFECE" filter="url(#f1acdtjn2q7h2s)" height="50" rx="12.5" ry="12.5" style="stroke: #A80036; stroke-width: 1.5;" width="61" x="8.5" y="321.1563"/><line style="stroke: #A80036; stroke-width: 1.5;" x1="8.5" x2="69.5" y1="348.7656" y2="348.7656"/><text fill="#000000" font-family="sans-serif" font-size="14" lengthAdjust="spacingAndGlyphs" textLength="41" x="18.5" y="340.6895">State2</text><rect fill="#FEFECE" filter="url(#f1acdtjn2q7h2s)" height="50" rx="12.5" ry="12.5" style="stroke: #A80036; stroke-width: 1.5;" width="61" x="11.5" y="465.1563"/><line style="stroke: #A80036; stroke-width: 1.5;" x1="11.5" x2="72.5" y1="492.7656" y2="492.7656"/><text fill="#000000" font-family="sans-serif" font-size="14" lengthAdjust="spacingAndGlyphs" textLength="41" x="21.5" y="484.6895">State3</text><rect fill="#FEFECE" filter="url(#f1acdtjn2q7h2s)" height="50" rx="12.5" ry="12.5" style="stroke: #A80036; stroke-width: 1.5;" width="61" x="64.5" y="609.1563"/><line style="stroke: #A80036; stroke-width: 1.5;" x1="64.5" x2="125.5" y1="636.7656" y2="636.7656"/><text fill="#000000" font-family="sans-serif" font-size="14" lengthAdjust="spacingAndGlyphs" textLength="41" x="74.5" y="628.6895">State4</text><rect fill="#FEFECE" filter="url(#f1acdtjn2q7h2s)" height="50" rx="12.5" ry="12.5" style="stroke: #A80036; stroke-width: 1.5;" width="61" x="64.5" y="753.1563"/><line style="stroke: #A80036; stroke-width: 1.5;" x1="64.5" x2="125.5" y1="780.7656" y2="780.7656"/><text fill="#000000" font-family="sans-serif" font-size="14" lengthAdjust="spacingAndGlyphs" textLength="41" x="74.5" y="772.6895">State5</text><rect fill="#FEFECE" filter="url(#f1acdtjn2q7h2s)" height="50" rx="12.5" ry="12.5" style="stroke: #A80036; stroke-width: 1.5;" width="61" x="64.5" y="897.1563"/><line style="stroke: #A80036; stroke-width: 1.5;" x1="64.5" x2="125.5" y1="924.7656" y2="924.7656"/><text fill="#000000" font-family="sans-serif" font-size="14" lengthAdjust="spacingAndGlyphs" textLength="41" x="74.5" y="916.6895">State6</text><!--MD5=[6bf52256a5a3d79cde37855053ede169]
link *start to State0--><path d="M26.0938,58.1563 C36.1053,58.1563 46.1169,58.1563 56.1285,58.1563 " fill="none" id="*start-&gt;State0" style="stroke: #A80036; stroke-width: 1.0;"/><polygon fill="#A80036" points="61.3639,58.1563,52.3639,54.1563,56.3639,58.1563,52.3639,62.1563,61.3639,58.1563" style="stroke: #A80036; stroke-width: 1.0;"/><!--MD5=[a9c2f088fcd292d29c9f53cd9a680591]
link State0 to State1--><path d="M92,83.2442 C92,107.7242 92,145.6722 92,171.8732 " fill="none" id="State0-&gt;State1" style="stroke: #A80036; stroke-width: 1.0;"/><polygon fill="#A80036" points="92,176.9493,96,167.9493,92,171.9493,88,167.9493,92,176.9493" style="stroke: #A80036; stroke-width: 1.0;"/><text fill="#000000" font-family="sans-serif" font-size="13" lengthAdjust="spacingAndGlyphs" textLength="70" x="93" y="127.6514">[alice2,bob]!</text><text fill="#000000" font-family="sans-serif" font-size="13" lengthAdjust="spacingAndGlyphs" textLength="34" x="111" y="144.0029">String</text><!--MD5=[dc702cd49c4e27e6abb2620dc4bb28d8]
link State1 to State2--><path d="M62.1122,227.1912 C53.7056,235.6853 45.606,245.9443 41,257.1563 C33.4221,275.6033 33.0504,298.1102 34.5071,315.7453 " fill="none" id="State1-&gt;State2" style="stroke: #A80036; stroke-width: 1.0;"/><polygon fill="#A80036" points="35.012,321.0513,38.1403,311.7124,34.5377,316.0738,30.1763,312.4712,35.012,321.0513" style="stroke: #A80036; stroke-width: 1.0;"/><text fill="#000000" font-family="sans-serif" font-size="13" lengthAdjust="spacingAndGlyphs" textLength="74" x="42" y="271.6514">[alice2,bob]?</text><text fill="#000000" font-family="sans-serif" font-size="13" lengthAdjust="spacingAndGlyphs" textLength="50" x="54" y="288.0029">NotUsed</text><!--MD5=[428d136baf6462f9e03ffacdcb621855]
link State2 to State3--><path d="M36.4628,371.4483 C34.9656,389.1273 33.6111,413.6373 35,435.1563 C35.5145,443.1283 36.452,451.7203 37.4773,459.6553 " fill="none" id="State2-&gt;State3" style="stroke: #A80036; stroke-width: 1.0;"/><polygon fill="#A80036" points="38.1969,465.0283,40.9684,455.5774,37.534,460.0724,33.039,456.638,38.1969,465.0283" style="stroke: #A80036; stroke-width: 1.0;"/><text fill="#000000" font-family="sans-serif" font-size="13" lengthAdjust="spacingAndGlyphs" textLength="63" x="36" y="415.6514">[bob,alice]!</text><text fill="#000000" font-family="sans-serif" font-size="13" lengthAdjust="spacingAndGlyphs" textLength="34" x="50.5" y="432.0029">String</text><!--MD5=[ba4168f70349cc0467fd74c2e3858fc7]
link State3 to State4--><path d="M39.6014,515.2483 C38.7278,533.4823 39.5728,558.7793 48,579.1563 C51.8073,588.3623 57.8381,597.0973 64.3269,604.7543 " fill="none" id="State3-&gt;State4" style="stroke: #A80036; stroke-width: 1.0;"/><polygon fill="#A80036" points="67.9676,608.8933,65.0261,599.4939,64.665,605.1392,59.0197,604.7781,67.9676,608.8933" style="stroke: #A80036; stroke-width: 1.0;"/><text fill="#000000" font-family="sans-serif" font-size="13" lengthAdjust="spacingAndGlyphs" textLength="67" x="49" y="559.6514">[bob,alice]?</text><text fill="#000000" font-family="sans-serif" font-size="13" lengthAdjust="spacingAndGlyphs" textLength="50" x="57.5" y="576.0029">NotUsed</text><!--MD5=[df93601a1d904fa7528a61bbdab7fbc6]
link State4 to State1--><path d="M109.481,609.0083 C114.122,599.9683 118.662,589.4023 121,579.1563 C152.84,439.6323 155.909,395.9443 121,257.1563 C118.85,248.6102 115.057,239.9422 110.908,232.1263 " fill="none" id="State4-&gt;State1" style="stroke: #A80036; stroke-width: 1.0;"/><polygon fill="#A80036" points="108.29,227.3782,109.1328,237.191,110.7043,231.7568,116.1385,233.3282,108.29,227.3782" style="stroke: #A80036; stroke-width: 1.0;"/><text fill="#000000" font-family="sans-serif" font-size="13" lengthAdjust="spacingAndGlyphs" textLength="70" x="147" y="415.6514">[alice2,bob]!</text><text fill="#000000" font-family="sans-serif" font-size="13" lengthAdjust="spacingAndGlyphs" textLength="34" x="165" y="432.0029">String</text><!--MD5=[196cf0de60bc43d3e8600cccfcd43773]
link State4 to State5--><path d="M95,659.2443 C95,683.7243 95,721.6723 95,747.8733 " fill="none" id="State4-&gt;State5" style="stroke: #A80036; stroke-width: 1.0;"/><polygon fill="#A80036" points="95,752.9493,99,743.9493,95,747.9493,91,743.9493,95,752.9493" style="stroke: #A80036; stroke-width: 1.0;"/><text fill="#000000" font-family="sans-serif" font-size="13" lengthAdjust="spacingAndGlyphs" textLength="63" x="96" y="703.6514">[alice,bob]!</text><text fill="#000000" font-family="sans-serif" font-size="13" lengthAdjust="spacingAndGlyphs" textLength="34" x="110.5" y="720.0029">String</text><!--MD5=[e800215b3c28a9235acdb96089e262d2]
link State5 to State6--><path d="M95,803.2443 C95,827.7243 95,865.6721 95,891.8736 " fill="none" id="State5-&gt;State6" style="stroke: #A80036; stroke-width: 1.0;"/><polygon fill="#A80036" points="95,896.9498,99,887.9498,95,891.9498,91,887.9498,95,896.9498" style="stroke: #A80036; stroke-width: 1.0;"/><text fill="#000000" font-family="sans-serif" font-size="13" lengthAdjust="spacingAndGlyphs" textLength="67" x="96" y="847.6514">[alice,bob]?</text><text fill="#000000" font-family="sans-serif" font-size="13" lengthAdjust="spacingAndGlyphs" textLength="50" x="104.5" y="864.0029">NotUsed</text><!--MD5=[4316911d90d063447ac1d9d6bf7ed983]
@startuml
 header


 endheader


[*] -> State0 
State0- ->State1:[alice2,bob]!\nString
State1- ->State2:[alice2,bob]?\nNotUsed
State2- ->State3:[bob,alice]!\nString
State3- ->State4:[bob,alice]?\nNotUsed
State4- ->State1:[alice2,bob]!\nString
State4- ->State5:[alice,bob]!\nString
State5- ->State6:[alice,bob]?\nNotUsed
@enduml 

PlantUML version 1.2020.07(Sun Apr 19 13:42:40 CEST 2020)
(GPL source distribution)
Java Runtime: OpenJDK Runtime Environment
JVM: OpenJDK 64-Bit Server VM
Java Version: 12+32
Operating System: Windows 10
Default Encoding: windows-1252
Language: en
Country: US
--></g></svg>