<?xml version="1.0" encoding="UTF-8" standalone="no"?><svg xmlns="http://www.w3.org/2000/svg" xmlns:xlink="http://www.w3.org/1999/xlink" contentScriptType="application/ecmascript" contentStyleType="text/css" height="958px" preserveAspectRatio="none" style="width:185px;height:958px;" version="1.1" viewBox="0 0 185 958" width="185px" zoomAndPan="magnify"><defs><filter height="300%" id="fkkqbbi8i3e43" width="300%" x="-1" y="-1"><feGaussianBlur result="blurOut" stdDeviation="2.0"/><feColorMatrix in="blurOut" result="blurOut2" type="matrix" values="0 0 0 0 0 0 0 0 0 0 0 0 0 0 0 0 0 0 .4 0"/><feOffset dx="4.0" dy="4.0" in="blurOut2" result="blurOut3"/><feBlend in="SourceGraphic" in2="blurOut3" mode="normal"/></filter></defs><g><text fill="#888888" font-family="sans-serif" font-size="10" lengthAdjust="spacingAndGlyphs" textLength="0" x="173" y="10.3809"/><text fill="#888888" font-family="sans-serif" font-size="10" lengthAdjust="spacingAndGlyphs" textLength="0" x="173" y="22.959"/><ellipse cx="16" cy="58.1563" fill="#000000" filter="url(#fkkqbbi8i3e43)" rx="10" ry="10" style="stroke: none; stroke-width: 1.0;"/><rect fill="#FEFECE" filter="url(#fkkqbbi8i3e43)" height="50" rx="12.5" ry="12.5" style="stroke: #A80036; stroke-width: 1.5;" width="61" x="61.5" y="33.1563"/><line style="stroke: #A80036; stroke-width: 1.5;" x1="61.5" x2="122.5" y1="60.7656" y2="60.7656"/><text fill="#000000" font-family="sans-serif" font-size="14" lengthAdjust="spacingAndGlyphs" textLength="41" x="71.5" y="52.6895">State0</text><rect fill="#FEFECE" filter="url(#fkkqbbi8i3e43)" height="50" rx="12.5" ry="12.5" style="stroke: #A80036; stroke-width: 1.5;" width="61" x="61.5" y="177.1563"/><line style="stroke: #A80036; stroke-width: 1.5;" x1="61.5" x2="122.5" y1="204.7656" y2="204.7656"/><text fill="#000000" font-family="sans-serif" font-size="14" lengthAdjust="spacingAndGlyphs" textLength="41" x="71.5" y="196.6895">State1</text><rect fill="#FEFECE" filter="url(#fkkqbbi8i3e43)" height="50" rx="12.5" ry="12.5" style="stroke: #A80036; stroke-width: 1.5;" width="61" x="61.5" y="321.1563"/><line style="stroke: #A80036; stroke-width: 1.5;" x1="61.5" x2="122.5" y1="348.7656" y2="348.7656"/><text fill="#000000" font-family="sans-serif" font-size="14" lengthAdjust="spacingAndGlyphs" textLength="41" x="71.5" y="340.6895">State2</text><rect fill="#FEFECE" filter="url(#fkkqbbi8i3e43)" height="50" rx="12.5" ry="12.5" style="stroke: #A80036; stroke-width: 1.5;" width="61" x="61.5" y="465.1563"/><line style="stroke: #A80036; stroke-width: 1.5;" x1="61.5" x2="122.5" y1="492.7656" y2="492.7656"/><text fill="#000000" font-family="sans-serif" font-size="14" lengthAdjust="spacingAndGlyphs" textLength="41" x="71.5" y="484.6895">State3</text><rect fill="#FEFECE" filter="url(#fkkqbbi8i3e43)" height="50" rx="12.5" ry="12.5" style="stroke: #A80036; stroke-width: 1.5;" width="61" x="10.5" y="609.1563"/><line style="stroke: #A80036; stroke-width: 1.5;" x1="10.5" x2="71.5" y1="636.7656" y2="636.7656"/><text fill="#000000" font-family="sans-serif" font-size="14" lengthAdjust="spacingAndGlyphs" textLength="41" x="20.5" y="628.6895">State4</text><rect fill="#FEFECE" filter="url(#fkkqbbi8i3e43)" height="50" rx="12.5" ry="12.5" style="stroke: #A80036; stroke-width: 1.5;" width="61" x="10.5" y="753.1563"/><line style="stroke: #A80036; stroke-width: 1.5;" x1="10.5" x2="71.5" y1="780.7656" y2="780.7656"/><text fill="#000000" font-family="sans-serif" font-size="14" lengthAdjust="spacingAndGlyphs" textLength="41" x="20.5" y="772.6895">State5</text><rect fill="#FEFECE" filter="url(#fkkqbbi8i3e43)" height="50" rx="12.5" ry="12.5" style="stroke: #A80036; stroke-width: 1.5;" width="61" x="56.5" y="897.1563"/><line style="stroke: #A80036; stroke-width: 1.5;" x1="56.5" x2="117.5" y1="924.7656" y2="924.7656"/><text fill="#000000" font-family="sans-serif" font-size="14" lengthAdjust="spacingAndGlyphs" textLength="41" x="66.5" y="916.6895">State6</text><!--MD5=[6bf52256a5a3d79cde37855053ede169]
link *start to State0--><path d="M26.0938,58.1563 C36.1053,58.1563 46.1169,58.1563 56.1285,58.1563 " fill="none" id="*start-&gt;State0" style="stroke: #A80036; stroke-width: 1.0;"/><polygon fill="#A80036" points="61.3639,58.1563,52.3639,54.1563,56.3639,58.1563,52.3639,62.1563,61.3639,58.1563" style="stroke: #A80036; stroke-width: 1.0;"/><!--MD5=[a9c2f088fcd292d29c9f53cd9a680591]
link State0 to State1--><path d="M92,83.2442 C92,107.7242 92,145.6722 92,171.8732 " fill="none" id="State0-&gt;State1" style="stroke: #A80036; stroke-width: 1.0;"/><polygon fill="#A80036" points="92,176.9493,96,167.9493,92,171.9493,88,167.9493,92,176.9493" style="stroke: #A80036; stroke-width: 1.0;"/><text fill="#000000" font-family="sans-serif" font-size="13" lengthAdjust="spacingAndGlyphs" textLength="37" x="93" y="127.6514">[W,B]!</text><text fill="#000000" font-family="sans-serif" font-size="13" lengthAdjust="spacingAndGlyphs" textLength="30" x="96.5" y="144.0029">Move</text><!--MD5=[dc702cd49c4e27e6abb2620dc4bb28d8]
link State1 to State2--><path d="M92,227.2442 C92,251.7242 92,289.6722 92,315.8733 " fill="none" id="State1-&gt;State2" style="stroke: #A80036; stroke-width: 1.0;"/><polygon fill="#A80036" points="92,320.9493,96,311.9493,92,315.9493,88,311.9493,92,320.9493" style="stroke: #A80036; stroke-width: 1.0;"/><text fill="#000000" font-family="sans-serif" font-size="13" lengthAdjust="spacingAndGlyphs" textLength="41" x="93" y="271.6514">[W,B]?</text><text fill="#000000" font-family="sans-serif" font-size="13" lengthAdjust="spacingAndGlyphs" textLength="30" x="98.5" y="288.0029">Move</text><!--MD5=[428d136baf6462f9e03ffacdcb621855]
link State2 to State3--><path d="M92,371.2442 C92,395.7243 92,433.6722 92,459.8733 " fill="none" id="State2-&gt;State3" style="stroke: #A80036; stroke-width: 1.0;"/><polygon fill="#A80036" points="92,464.9493,96,455.9493,92,459.9493,88,455.9493,92,464.9493" style="stroke: #A80036; stroke-width: 1.0;"/><text fill="#000000" font-family="sans-serif" font-size="13" lengthAdjust="spacingAndGlyphs" textLength="37" x="93" y="415.6514">[B,W]!</text><text fill="#000000" font-family="sans-serif" font-size="13" lengthAdjust="spacingAndGlyphs" textLength="30" x="96.5" y="432.0029">Move</text><!--MD5=[ba4168f70349cc0467fd74c2e3858fc7]
link State3 to State4--><path d="M72.8253,515.2103 C66.5665,524.1563 60.1627,534.6863 56,545.1563 C48.5797,563.8203 44.8282,586.1393 42.9325,603.6293 " fill="none" id="State3-&gt;State4" style="stroke: #A80036; stroke-width: 1.0;"/><polygon fill="#A80036" points="42.4017,608.8933,47.2865,600.3411,42.9045,603.9186,39.3271,599.5366,42.4017,608.8933" style="stroke: #A80036; stroke-width: 1.0;"/><text fill="#000000" font-family="sans-serif" font-size="13" lengthAdjust="spacingAndGlyphs" textLength="41" x="57" y="559.6514">[B,W]?</text><text fill="#000000" font-family="sans-serif" font-size="13" lengthAdjust="spacingAndGlyphs" textLength="30" x="62.5" y="576.0029">Move</text><!--MD5=[196cf0de60bc43d3e8600cccfcd43773]
link State4 to State5--><path d="M41,659.2443 C41,683.7243 41,721.6723 41,747.8733 " fill="none" id="State4-&gt;State5" style="stroke: #A80036; stroke-width: 1.0;"/><polygon fill="#A80036" points="41,752.9493,45,743.9493,41,747.9493,37,743.9493,41,752.9493" style="stroke: #A80036; stroke-width: 1.0;"/><text fill="#000000" font-family="sans-serif" font-size="13" lengthAdjust="spacingAndGlyphs" textLength="37" x="42" y="703.6514">[W,B]!</text><text fill="#000000" font-family="sans-serif" font-size="13" lengthAdjust="spacingAndGlyphs" textLength="30" x="45.5" y="720.0029">Move</text><!--MD5=[e800215b3c28a9235acdb96089e262d2]
link State5 to State6--><path d="M42.8068,803.2663 C44.703,821.2853 48.5051,846.2993 56,867.1563 C59.1154,875.8257 63.5918,884.7071 68.178,892.6988 " fill="none" id="State5-&gt;State6" style="stroke: #A80036; stroke-width: 1.0;"/><polygon fill="#A80036" points="70.7292,897.04,69.6179,887.254,68.1959,892.7292,62.7207,891.3073,70.7292,897.04" style="stroke: #A80036; stroke-width: 1.0;"/><text fill="#000000" font-family="sans-serif" font-size="13" lengthAdjust="spacingAndGlyphs" textLength="41" x="57" y="847.6514">[W,B]?</text><text fill="#000000" font-family="sans-serif" font-size="13" lengthAdjust="spacingAndGlyphs" textLength="30" x="62.5" y="864.0029">Move</text><!--MD5=[0bd530cd4218eff5cbb752bac3e11a1f]
link State6 to State3--><path d="M95.765,897.0271 C98.6821,887.8114 101.5545,877.1232 103,867.1563 C123.541,725.5273 117.355,687.5453 103,545.1563 C102.1735,536.9583 100.658,528.1643 99.0108,520.1033 " fill="none" id="State6-&gt;State3" style="stroke: #A80036; stroke-width: 1.0;"/><polygon fill="#A80036" points="97.9732,515.1903,95.9187,524.8224,99.0061,520.0824,103.7461,523.1698,97.9732,515.1903" style="stroke: #A80036; stroke-width: 1.0;"/><text fill="#000000" font-family="sans-serif" font-size="13" lengthAdjust="spacingAndGlyphs" textLength="37" x="117" y="703.6514">[B,W]!</text><text fill="#000000" font-family="sans-serif" font-size="13" lengthAdjust="spacingAndGlyphs" textLength="30" x="120.5" y="720.0029">Move</text><!--MD5=[b7e9e9d73327dca061f73ff2772996f7]
@startuml
 header


 endheader


[*] -> State0 
State0- ->State1:[W,B]!\nMove
State1- ->State2:[W,B]?\nMove
State2- ->State3:[B,W]!\nMove
State3- ->State4:[B,W]?\nMove
State4- ->State5:[W,B]!\nMove
State5- ->State6:[W,B]?\nMove
State6- ->State3:[B,W]!\nMove
@enduml 

PlantUML version 1.2020.00(Sat Jan 11 13:30:53 CET 2020)
(GPL source distribution)
Java Runtime: OpenJDK Runtime Environment
JVM: OpenJDK 64-Bit Server VM
Java Version: 13.0.2+8
Operating System: Windows 10
Default Encoding: UTF-8
Language: en
Country: US
--></g></svg>